    <svg width="308" height="302" viewBox="0 0 308 302" fill="none" xmlns="http://www.w3.org/2000/svg">
<path d="M262.213 301.552C262.213 301.653 212.257 301.739 150.655 301.739C89.0519 301.739 39.0747 301.653 39.0747 301.552C39.0747 301.452 89.0231 301.365 150.655 301.365C212.286 301.365 262.213 301.459 262.213 301.552Z" fill="#263238"/>
<path d="M213.538 213.483C202.423 205.72 199.905 191.311 200.344 178.354C200.416 176.196 200.178 173.908 201.207 172.016C202.236 170.124 204.639 168.822 206.574 169.728C208.178 170.484 208.876 172.354 209.775 173.901C210.975 175.961 212.734 177.64 214.847 178.742C216.221 179.462 217.926 179.894 219.286 179.145C221.156 178.117 221.372 175.548 221.358 173.39C221.358 169.376 221.334 165.366 221.286 161.362C221.157 159.211 221.375 157.054 221.933 154.973C222.602 152.93 224.091 151.038 226.127 150.463C228.163 149.887 230.703 151.074 231.163 153.175C231.242 154.065 231.264 154.958 231.228 155.851C231.286 156.75 231.703 157.736 232.545 158.009C233.386 158.283 234.264 157.657 234.911 157.024C237.127 154.865 238.638 152.053 240.041 149.276C241.444 146.499 242.818 143.643 244.832 141.276C246.846 138.909 249.63 137.031 252.745 136.851C255.86 136.672 259.105 138.585 259.882 141.607C260.659 144.628 258.896 147.714 257.004 150.168C254.149 153.809 250.784 157.02 247.012 159.7C246.275 160.102 245.688 160.73 245.336 161.491C244.868 162.93 246.228 164.369 247.645 164.822C249.249 165.354 250.99 165.189 252.681 165.39C254.371 165.592 256.17 166.326 256.81 167.908C257.688 170.11 255.846 172.412 254.04 173.922C250.415 176.944 246.297 179.321 241.868 180.951C240.285 181.527 238.623 182.037 237.343 183.145C236.062 184.253 235.3 186.188 236.07 187.706C236.839 189.224 238.818 189.706 240.48 189.397C242.141 189.088 243.616 188.195 245.199 187.598C248.156 186.483 251.968 186.685 253.832 189.239C254.409 190.118 254.774 191.12 254.899 192.165C255.024 193.21 254.905 194.269 254.551 195.26C253.831 197.232 252.723 199.04 251.292 200.576C246.58 206.206 240.458 210.484 233.552 212.972C226.696 215.346 220.343 215.993 213.531 213.497" fill="#4CAF4F"/>
<path d="M256.717 138.628C256.717 138.628 256.652 138.7 256.508 138.83L255.868 139.398C255.307 139.902 254.479 140.635 253.436 141.607C250.479 144.353 247.732 147.318 245.22 150.477C243.616 152.47 241.954 154.729 240.185 157.182C238.415 159.635 236.588 162.282 234.775 165.095C232.842 168.062 231.072 171.131 229.473 174.289C228.638 175.937 227.904 177.656 227.149 179.411L224.919 184.771C221.979 191.522 219.419 198.432 217.25 205.468C215.503 211.226 214.299 217.134 213.653 223.115C213.235 227.152 213.167 231.218 213.452 235.266C213.567 236.705 213.675 237.806 213.775 238.554C213.818 238.914 213.847 239.201 213.876 239.41V239.705C213.845 239.611 213.823 239.515 213.811 239.417C213.775 239.209 213.732 238.928 213.675 238.568C213.545 237.849 213.408 236.712 213.279 235.273C212.932 231.217 212.956 227.138 213.351 223.087C213.956 217.079 215.134 211.144 216.869 205.36C219.019 198.304 221.573 191.377 224.516 184.613L226.804 179.275C227.559 177.527 228.3 175.793 229.142 174.138C230.752 170.97 232.537 167.894 234.487 164.923C236.329 162.045 238.185 159.441 239.933 157.009C241.681 154.578 243.372 152.304 244.969 150.319C247.506 147.168 250.289 144.224 253.292 141.513C254.357 140.556 255.206 139.837 255.781 139.355L256.45 138.815C256.532 138.744 256.622 138.681 256.717 138.628Z" fill="#263238"/>
<path d="M229.235 174.124C229.134 173.828 229.064 173.521 229.027 173.21C228.911 172.613 228.782 171.771 228.631 170.678C228.322 168.52 228.005 165.563 227.667 162.29C227.329 159.016 226.948 156.052 226.631 153.916C226.466 152.851 226.322 151.995 226.221 151.398C226.142 151.092 226.101 150.778 226.099 150.463C226.223 150.751 226.312 151.053 226.365 151.362C226.523 151.952 226.703 152.801 226.904 153.873C227.314 156.031 227.717 158.966 228.055 162.247C228.394 165.527 228.681 168.405 228.904 170.642C229.012 171.649 229.106 172.505 229.178 173.189C229.234 173.497 229.253 173.811 229.235 174.124Z" fill="#263238"/>
<path d="M256.918 168.959C256.568 169.035 256.211 169.078 255.853 169.088C255.134 169.153 254.112 169.239 252.846 169.383C250.314 169.656 246.832 170.16 243.012 170.879C239.192 171.599 235.76 172.412 233.293 173.038C232.062 173.354 231.07 173.642 230.415 173.836C230.066 173.96 229.704 174.047 229.336 174.095C229.668 173.928 230.015 173.791 230.372 173.685C231.048 173.448 232.026 173.117 233.249 172.764C235.703 172.045 239.134 171.189 242.969 170.455C246.217 169.834 249.494 169.378 252.789 169.088C254.062 168.98 255.091 168.937 255.81 168.923C256.18 168.897 256.551 168.91 256.918 168.959Z" fill="#263238"/>
<path d="M217.221 204.857C217.144 204.753 217.081 204.639 217.034 204.519L216.559 203.519C216.149 202.648 215.595 201.361 214.933 199.785C213.595 196.62 211.89 192.188 210.077 187.267C208.264 182.347 206.595 177.915 205.329 174.714C204.711 173.16 204.2 171.887 203.819 170.937L203.416 169.908C203.36 169.79 203.321 169.664 203.301 169.534C203.377 169.638 203.44 169.752 203.488 169.872L203.962 170.872C204.365 171.743 204.926 173.03 205.588 174.606C206.926 177.771 208.631 182.203 210.444 187.124C212.257 192.044 213.926 196.476 215.192 199.677C215.811 201.231 216.322 202.504 216.696 203.454C216.861 203.864 216.998 204.173 217.106 204.483C217.162 204.601 217.201 204.727 217.221 204.857Z" fill="#263238"/>
<path d="M253.968 193.008C253.853 193.074 253.73 193.125 253.601 193.159L252.537 193.519L248.602 194.792C245.278 195.872 240.688 197.411 235.652 199.109C230.616 200.807 226.005 202.317 222.66 203.325C220.991 203.835 219.631 204.224 218.689 204.483L217.602 204.763C217.476 204.804 217.346 204.83 217.214 204.843C217.329 204.776 217.452 204.726 217.581 204.691L218.645 204.332L222.581 203.058C225.904 201.979 230.494 200.44 235.53 198.742C240.566 197.044 245.17 195.533 248.515 194.526C250.191 194.015 251.544 193.627 252.494 193.368L253.58 193.087C253.706 193.047 253.836 193.021 253.968 193.008Z" fill="#263238"/>
<path d="M238.976 18.5019L235.271 19.8256L233.681 14.984C230.76 6.0562 221.451 1.31531 212.897 4.32962C204.344 7.34393 199.79 17.1351 202.711 26.0629L204.301 30.9045L200.581 32.2354C199.163 32.7855 198.011 33.861 197.365 35.2383C196.72 36.6156 196.63 38.1888 197.114 39.6309L207.423 71.1337C207.637 71.8476 207.992 72.5112 208.468 73.085C208.943 73.6589 209.529 74.1313 210.191 74.4742C210.852 74.8171 211.576 75.0236 212.319 75.0812C213.062 75.1389 213.809 75.0466 214.516 74.8098L252.911 61.0764C254.348 60.5272 255.516 59.4422 256.169 58.0496C256.823 56.6569 256.911 55.0651 256.414 53.609L246.098 22.1062C245.878 21.3943 245.518 20.7339 245.037 20.1645C244.557 19.595 243.967 19.1282 243.302 18.7918C242.638 18.4554 241.912 18.2564 241.169 18.2066C240.425 18.1568 239.68 18.2572 238.976 18.5019ZM209.71 23.5378C208.923 21.2164 209.064 18.6803 210.105 16.4609C211.146 14.2414 213.005 12.5108 215.293 11.6316C216.423 11.245 217.619 11.09 218.81 11.1758C220.001 11.2616 221.163 11.5864 222.226 12.1309C223.289 12.6754 224.231 13.4285 224.996 14.3451C225.762 15.2617 226.335 16.3231 226.681 17.466L228.264 22.3076L211.293 28.3794L209.71 23.5378ZM231.293 51.4939L233.926 59.5369C233.974 59.6981 233.958 59.8718 233.882 60.0219C233.806 60.1719 233.674 60.2868 233.516 60.3426L229.825 61.6591C229.678 61.6998 229.521 61.6821 229.387 61.6097C229.253 61.5373 229.152 61.4158 229.106 61.2706L226.451 53.2636C224.987 53.1839 223.583 52.6589 222.426 51.7589C221.269 50.8589 220.414 49.6269 219.976 48.2278C219.351 46.3782 219.465 44.3582 220.295 42.5908C221.125 40.8234 222.607 39.4456 224.43 38.746C225.33 38.4385 226.282 38.3153 227.231 38.3838C228.18 38.4524 229.105 38.7112 229.951 39.1448C230.798 39.5785 231.549 40.1782 232.158 40.9081C232.768 41.638 233.225 42.4832 233.501 43.3934C233.964 44.8146 234.002 46.34 233.611 47.7826C233.22 49.2253 232.417 50.5225 231.3 51.5155L231.293 51.4939Z" fill="#4CAF4F"/>
<path d="M235.106 19.7393C235.106 19.84 228.235 22.4227 219.689 25.4946C211.142 28.5664 204.171 31.034 204.135 30.962C204.099 30.8901 211.005 28.2859 219.559 25.2068C228.113 22.1277 235.07 19.6458 235.106 19.7393Z" fill="#263238"/>
<path d="M243.264 21.063C243.295 21.1254 243.322 21.1904 243.343 21.2572C243.4 21.4011 243.465 21.5882 243.551 21.8184C243.738 22.3435 243.997 23.0701 244.321 23.9766L247.084 32.0195C248.235 35.4295 249.609 39.4726 251.134 43.9617C251.853 46.2134 252.702 48.5587 253.493 51.0263C253.917 52.2978 254.1 53.6372 254.033 54.9758C253.972 55.672 253.774 56.3492 253.45 56.9686C253.105 57.5858 252.643 58.1306 252.091 58.5728C250.979 59.3841 249.746 60.0131 248.436 60.4361L244.731 61.767L237.717 64.2777L225.839 68.5078L217.818 71.3279L215.66 72.0473L215.084 72.2343C215.023 72.2617 214.957 72.2787 214.89 72.2847C214.89 72.2847 214.948 72.2847 215.07 72.1984L215.631 71.9754L217.789 71.1624L225.768 68.2273L237.623 63.9108L244.623 61.3785L248.328 60.0404C249.6 59.6347 250.798 59.0248 251.875 58.2347C252.389 57.8243 252.819 57.3187 253.141 56.7455C253.446 56.1727 253.629 55.5434 253.681 54.8967C253.747 53.6069 253.571 52.3161 253.163 51.091C252.386 48.645 251.565 46.2782 250.824 44.0264C249.328 39.5301 247.947 35.4727 246.853 32.0627C245.76 28.6527 244.839 25.9118 244.206 23.9838C243.904 23.0414 243.674 22.3076 243.487 21.7752L243.314 21.1997C243.292 21.1561 243.275 21.1102 243.264 21.063Z" fill="#263238"/>
<path d="M223.005 11.1424C223.005 11.1424 222.624 10.9554 221.919 10.6676C220.914 10.2815 219.851 10.0675 218.775 10.0345C217.18 9.97983 215.593 10.2796 214.128 10.9122C212.346 11.6999 210.823 12.9741 209.732 14.5884C208.634 16.1981 208.045 18.1003 208.042 20.0487C208.057 21.6455 208.299 23.2322 208.761 24.7608C209.135 26.0701 209.524 27.1132 209.782 27.8398C209.935 28.2089 210.06 28.5888 210.157 28.9765C209.952 28.6314 209.781 28.2677 209.646 27.8902C209.351 27.1708 208.926 26.1492 208.509 24.8327C207.997 23.2881 207.718 21.6756 207.682 20.0487C207.663 18.0267 208.265 16.0477 209.408 14.3797C210.537 12.7065 212.123 11.3929 213.977 10.5957C215.487 9.95959 217.124 9.679 218.761 9.77554C219.86 9.83157 220.94 10.0875 221.948 10.5309C222.217 10.6552 222.477 10.7995 222.725 10.9626C222.827 11.0075 222.922 11.0682 223.005 11.1424Z" fill="#263238"/>
<path d="M223.336 39.2928C223.451 39.2232 223.571 39.163 223.696 39.1129C224.056 38.9504 224.429 38.8181 224.811 38.7172C225.417 38.5383 226.043 38.432 226.674 38.4007C227.533 38.3545 228.392 38.4843 229.199 38.782C231.041 39.4295 232.732 41.3071 233.566 43.8178C233.966 45.1652 233.966 46.5999 233.566 47.9472C233.122 49.4096 232.327 50.741 231.25 51.8248L231.293 51.6306C232.25 54.2564 233.293 57.1053 234.372 60.0764L234.437 60.2563L234.257 60.321L232.609 60.8678L229.012 62.0692L228.832 62.1267L228.775 61.9469C227.789 58.9685 226.71 56.1916 225.897 53.4651L226.055 53.5874C224.649 53.4706 223.308 52.9427 222.199 52.0694C221.196 51.2969 220.374 50.3149 219.789 49.1918C219.262 48.1959 218.999 47.0811 219.027 45.9545C219.06 44.803 219.348 43.6732 219.869 42.6459C220.39 41.6186 221.132 40.7192 222.041 40.0122C222.416 39.7083 222.836 39.4655 223.286 39.2928C222.879 39.5339 222.486 39.7956 222.106 40.0769C221.107 40.9221 220.342 42.0095 219.883 43.2351C219.489 44.1593 219.305 45.1592 219.344 46.1629C219.382 47.1667 219.643 48.1495 220.106 49.0407C220.681 50.1211 221.483 51.0637 222.458 51.8032C223.516 52.6333 224.795 53.1337 226.135 53.2421H226.257L226.293 53.35C227.084 56.0262 228.171 58.8246 229.17 61.8174L228.933 61.7023L232.53 60.5009L234.17 59.9469L234.055 60.1915C232.983 57.2204 231.947 54.3643 230.998 51.7385V51.6306L231.084 51.5443C232.13 50.5053 232.91 49.2295 233.357 47.8249C233.739 46.5361 233.739 45.1643 233.357 43.8754C232.573 41.4582 230.955 39.6237 229.199 38.9762C228.422 38.6766 227.593 38.5371 226.76 38.5662C226.139 38.5804 225.521 38.6649 224.919 38.818C223.847 39.0841 223.343 39.3287 223.336 39.2928Z" fill="#263238"/>
<path d="M201.099 247.014L129.238 246.683C125.088 246.66 121.117 244.991 118.196 242.043C115.276 239.094 113.646 235.107 113.663 230.957L114.425 50.8104C114.434 48.7544 114.847 46.7202 115.642 44.8241C116.438 42.928 117.599 41.2072 119.059 39.7601C120.52 38.313 122.251 37.1678 124.154 36.3902C126.058 35.6126 128.096 35.2177 130.152 35.2281L202.006 35.559C206.156 35.58 210.128 37.2472 213.049 40.1944C215.971 43.1417 217.603 47.1281 217.588 51.2781L216.826 231.417C216.817 233.474 216.404 235.509 215.609 237.406C214.814 239.303 213.653 241.024 212.193 242.473C210.732 243.921 209.001 245.068 207.098 245.847C205.194 246.626 203.156 247.023 201.099 247.014Z" fill="#455A64"/>
<path d="M201.898 41.7532H187.97C187.516 41.7616 187.068 41.8594 186.651 42.0412C186.234 42.2229 185.858 42.4849 185.542 42.8123C185.227 43.1396 184.979 43.5259 184.813 43.949C184.647 44.3721 184.566 44.8238 184.575 45.2782V47.8034C184.583 48.2575 184.502 48.7088 184.336 49.1315C184.17 49.5542 183.922 49.94 183.607 50.2668C183.291 50.5935 182.915 50.8549 182.498 51.0358C182.081 51.2168 181.633 51.3138 181.179 51.3213L154.029 51.199C153.11 51.1745 152.239 50.7865 151.606 50.1201C150.974 49.4538 150.632 48.5636 150.655 47.6451V45.12C150.678 44.2027 150.337 43.3136 149.706 42.6474C149.074 41.9813 148.205 41.5925 147.288 41.5661H142.389L130.195 41.5086C127.294 41.4913 124.505 42.624 122.438 44.6586C120.371 46.6933 119.195 49.4641 119.166 52.3644L118.447 228.202C118.44 229.641 118.717 231.067 119.262 232.398C119.806 233.73 120.608 234.942 121.62 235.964C122.633 236.986 123.837 237.799 125.164 238.355C126.491 238.912 127.914 239.202 129.353 239.209L201.064 239.54C202.503 239.546 203.93 239.269 205.263 238.724C206.596 238.179 207.808 237.377 208.831 236.364C209.854 235.351 210.667 234.146 211.224 232.818C211.781 231.49 212.071 230.066 212.078 228.626L212.797 52.7888C212.814 49.8804 211.676 47.0841 209.632 45.0147C207.588 42.9453 204.806 41.7722 201.898 41.7532Z" fill="white"/>
<path d="M192.251 216.08L138.928 215.849C138.374 215.849 137.928 215.245 137.935 214.511L137.993 200.562C137.993 199.843 138.446 199.224 139 199.224L192.323 199.469C192.629 199.522 192.904 199.691 193.089 199.942C193.274 200.192 193.355 200.505 193.315 200.814L193.265 214.749C193.265 215.49 192.805 216.087 192.251 216.08Z" fill="#4CAF4F"/>
<path d="M155.14 209.402C154.846 209.402 154.563 209.355 154.291 209.261C154.023 209.163 153.816 209.038 153.669 208.887L153.833 208.565C153.972 208.701 154.159 208.816 154.393 208.91C154.631 209.001 154.88 209.046 155.14 209.046C155.389 209.046 155.591 209.016 155.746 208.955C155.904 208.891 156.019 208.806 156.091 208.701C156.167 208.595 156.204 208.478 156.204 208.35C156.204 208.195 156.159 208.071 156.068 207.976C155.982 207.882 155.867 207.808 155.723 207.755C155.58 207.699 155.421 207.65 155.248 207.608C155.074 207.567 154.901 207.523 154.727 207.478C154.553 207.429 154.393 207.365 154.246 207.286C154.103 207.206 153.986 207.103 153.895 206.974C153.808 206.842 153.765 206.671 153.765 206.459C153.765 206.263 153.816 206.084 153.918 205.922C154.023 205.756 154.184 205.624 154.399 205.525C154.614 205.424 154.889 205.373 155.225 205.373C155.448 205.373 155.668 205.405 155.887 205.469C156.106 205.529 156.295 205.614 156.453 205.724L156.312 206.057C156.142 205.944 155.961 205.861 155.768 205.808C155.58 205.756 155.397 205.729 155.219 205.729C154.982 205.729 154.786 205.761 154.631 205.825C154.476 205.89 154.361 205.976 154.286 206.086C154.214 206.191 154.178 206.312 154.178 206.448C154.178 206.603 154.221 206.727 154.308 206.822C154.399 206.916 154.516 206.989 154.659 207.042C154.806 207.095 154.967 207.142 155.14 207.184C155.314 207.225 155.485 207.271 155.655 207.32C155.829 207.369 155.987 207.433 156.131 207.512C156.278 207.588 156.395 207.689 156.482 207.818C156.572 207.946 156.617 208.114 156.617 208.321C156.617 208.514 156.565 208.693 156.459 208.859C156.353 209.021 156.191 209.153 155.972 209.255C155.757 209.353 155.48 209.402 155.14 209.402ZM157.53 209.369V205.407H157.949V209.369H157.53ZM159.238 209.369V205.407H159.583L162.317 208.848H162.136V205.407H162.549V209.369H162.204L159.476 205.927H159.657V209.369H159.238ZM165.58 209.402C165.278 209.402 164.999 209.353 164.742 209.255C164.489 209.153 164.269 209.012 164.08 208.831C163.895 208.65 163.75 208.437 163.644 208.191C163.542 207.946 163.491 207.678 163.491 207.388C163.491 207.097 163.542 206.829 163.644 206.584C163.75 206.339 163.897 206.125 164.086 205.944C164.274 205.763 164.495 205.624 164.748 205.525C165.004 205.424 165.284 205.373 165.585 205.373C165.887 205.373 166.163 205.42 166.412 205.514C166.665 205.608 166.88 205.752 167.057 205.944L166.797 206.21C166.631 206.044 166.448 205.925 166.248 205.854C166.048 205.782 165.833 205.746 165.602 205.746C165.357 205.746 165.131 205.788 164.923 205.871C164.719 205.95 164.54 206.065 164.386 206.216C164.235 206.363 164.116 206.537 164.029 206.737C163.946 206.933 163.904 207.15 163.904 207.388C163.904 207.621 163.946 207.838 164.029 208.038C164.116 208.238 164.235 208.414 164.386 208.565C164.54 208.712 164.719 208.827 164.923 208.91C165.131 208.989 165.355 209.029 165.597 209.029C165.823 209.029 166.036 208.995 166.236 208.927C166.44 208.859 166.627 208.744 166.797 208.582L167.034 208.899C166.846 209.065 166.625 209.191 166.372 209.278C166.119 209.361 165.855 209.402 165.58 209.402ZM166.633 208.848V207.388H167.034V208.899L166.633 208.848ZM171.297 209.402C170.792 209.402 170.393 209.257 170.103 208.967C169.812 208.676 169.667 208.246 169.667 207.676V205.407H170.086V207.659C170.086 208.127 170.192 208.472 170.403 208.695C170.614 208.918 170.912 209.029 171.297 209.029C171.686 209.029 171.986 208.918 172.197 208.695C172.408 208.472 172.514 208.127 172.514 207.659V205.407H172.922V207.676C172.922 208.246 172.776 208.676 172.486 208.967C172.199 209.257 171.803 209.402 171.297 209.402ZM174.184 209.369V205.407H175.667C176.002 205.407 176.291 205.461 176.533 205.571C176.774 205.676 176.959 205.831 177.087 206.035C177.219 206.235 177.285 206.478 177.285 206.765C177.285 207.044 177.219 207.286 177.087 207.489C176.959 207.689 176.774 207.844 176.533 207.954C176.291 208.063 176.002 208.118 175.667 208.118H174.416L174.603 207.92V209.369H174.184ZM174.603 207.954L174.416 207.75H175.655C176.052 207.75 176.351 207.665 176.555 207.495C176.763 207.322 176.867 207.078 176.867 206.765C176.867 206.448 176.763 206.203 176.555 206.029C176.351 205.856 176.052 205.769 175.655 205.769H174.416L174.603 205.571V207.954Z" fill="#E8E8E3"/>
<path d="M149.564 93.4426L131.061 93.3586L131.046 96.7542L149.549 96.8382L149.564 93.4426Z" fill="#4CAF4F"/>
<path opacity="0.1" d="M149.564 93.4426L131.061 93.3586L131.046 96.7542L149.549 96.8382L149.564 93.4426Z" fill="black"/>
<path d="M203.804 114.291C203.95 114.276 204.092 114.242 204.229 114.19C204.428 114.112 204.601 113.98 204.728 113.808C204.856 113.636 204.932 113.432 204.948 113.219C204.948 112.075 204.948 110.406 204.948 108.262C204.948 107.19 204.948 105.989 204.948 104.665C204.948 104.341 204.948 104.003 204.948 103.665C204.995 103.337 204.924 103.003 204.747 102.723C204.648 102.588 204.519 102.479 204.37 102.403C204.222 102.327 204.058 102.286 203.891 102.284H202.768H192.373L132.202 102.061C132.048 102.058 131.895 102.093 131.758 102.162C131.62 102.231 131.501 102.332 131.411 102.457C131.237 102.738 131.17 103.073 131.223 103.399C131.223 104.118 131.223 104.838 131.223 105.557C131.223 106.996 131.223 108.435 131.223 109.874C131.223 110.593 131.223 111.313 131.223 112.032C131.194 112.367 131.194 112.704 131.223 113.039C131.261 113.183 131.331 113.316 131.429 113.428C131.526 113.54 131.648 113.629 131.785 113.687C131.926 113.743 132.078 113.77 132.231 113.766H135.892L151.87 113.852L178.92 114.017L197.157 114.161L202.114 114.219H203.401C203.696 114.219 203.84 114.219 203.84 114.219H203.401H202.114H197.157H178.92L151.87 114.133L135.892 114.068H132.231C132.029 114.076 131.828 114.042 131.641 113.967C131.451 113.886 131.283 113.763 131.148 113.607C131.014 113.452 130.916 113.267 130.864 113.068C130.822 112.879 130.808 112.685 130.821 112.492V111.96C130.821 111.241 130.821 110.521 130.821 109.802C130.821 108.363 130.821 106.924 130.821 105.485C130.821 104.766 130.821 104.046 130.821 103.327C130.807 103.135 130.807 102.943 130.821 102.752C130.848 102.54 130.929 102.339 131.058 102.169C131.182 101.995 131.346 101.854 131.537 101.758C131.727 101.661 131.938 101.612 132.151 101.615L192.323 101.946L202.718 102.018H203.84C204.038 102.018 204.233 102.066 204.408 102.157C204.583 102.249 204.734 102.381 204.848 102.543C205.05 102.856 205.132 103.232 205.078 103.6C205.078 103.939 205.078 104.277 205.078 104.6C205.078 105.91 205.078 107.111 205.078 108.197C205.078 110.356 205.027 112.01 205.013 113.161C204.995 113.383 204.915 113.594 204.781 113.772C204.647 113.949 204.466 114.084 204.258 114.161C204.121 114.246 203.965 114.291 203.804 114.291Z" fill="#E0E0E0"/>
<path d="M170.46 105.672H136.619V108.845H170.46V105.672Z" fill="#4CAF4F"/>
<path opacity="0.2" d="M170.46 105.672H136.619V108.845H170.46V105.672Z" fill="white"/>
<path d="M149.438 124.419L130.935 124.335L130.919 127.731L149.422 127.815L149.438 124.419Z" fill="#4CAF4F"/>
<path opacity="0.1" d="M149.438 124.419L130.935 124.335L130.919 127.731L149.422 127.815L149.438 124.419Z" fill="black"/>
<path d="M203.337 145.268C203.482 145.251 203.626 145.224 203.768 145.189C203.969 145.125 204.154 145.019 204.311 144.878C204.467 144.736 204.591 144.563 204.675 144.369C204.788 144.079 204.832 143.766 204.804 143.456C204.804 143.11 204.804 142.736 204.804 142.319C204.804 141.484 204.804 140.535 204.804 139.441V134.873C204.839 134.542 204.766 134.209 204.596 133.923C204.418 133.63 204.139 133.413 203.812 133.312C203.453 133.248 203.088 133.229 202.725 133.254H192.373L132.411 133.031C132.088 133.032 131.777 133.15 131.535 133.363C131.292 133.576 131.136 133.87 131.094 134.19C131.094 134.873 131.094 135.628 131.094 136.348C131.094 137.787 131.094 139.225 131.094 140.664C131.094 141.384 131.094 142.103 131.094 142.823C131.067 143.159 131.082 143.497 131.137 143.83C131.227 144.121 131.412 144.375 131.662 144.549C131.928 144.718 132.24 144.798 132.554 144.779H133.554H135.633L151.554 144.858L178.51 145.024L196.682 145.168L201.625 145.225H196.682H178.51L151.54 145.197L135.619 145.139H132.49C132.101 145.162 131.714 145.059 131.389 144.844C131.062 144.617 130.823 144.284 130.713 143.902C130.648 143.536 130.629 143.164 130.655 142.794C130.655 142.074 130.655 141.355 130.655 140.636C130.655 139.197 130.655 137.758 130.655 136.319C130.655 135.6 130.655 134.88 130.655 134.161C130.708 133.749 130.908 133.371 131.219 133.097C131.531 132.823 131.931 132.672 132.346 132.672L192.308 133.003L202.661 133.082C203.046 133.058 203.433 133.085 203.812 133.161C204.185 133.283 204.501 133.539 204.696 133.88C204.883 134.197 204.963 134.565 204.927 134.931C204.927 135.269 204.927 135.6 204.927 135.931C204.927 137.233 204.927 138.427 204.927 139.528C204.927 140.628 204.927 141.556 204.927 142.405C204.927 142.815 204.927 143.197 204.927 143.549C204.953 143.871 204.901 144.194 204.776 144.492C204.682 144.69 204.547 144.866 204.379 145.008C204.212 145.149 204.016 145.253 203.804 145.312C203.647 145.325 203.489 145.31 203.337 145.268Z" fill="#E0E0E0"/>
<path d="M149.298 156.741L130.795 156.657L130.78 160.053L149.283 160.137L149.298 156.741Z" fill="#4CAF4F"/>
<path opacity="0.1" d="M149.298 156.741L130.795 156.657L130.78 160.053L149.283 160.137L149.298 156.741Z" fill="black"/>
<path d="M203.193 177.577C203.338 177.56 203.483 177.533 203.625 177.498C203.825 177.434 204.009 177.329 204.165 177.189C204.321 177.049 204.446 176.877 204.531 176.685C204.644 176.394 204.688 176.082 204.66 175.771C204.66 175.419 204.66 175.052 204.66 174.627C204.66 173.8 204.66 172.843 204.66 171.75V167.182C204.695 166.851 204.622 166.518 204.452 166.232C204.27 165.944 203.992 165.73 203.668 165.628C203.31 165.561 202.945 165.539 202.581 165.563H192.229L132.267 165.34C131.944 165.341 131.633 165.459 131.391 165.672C131.149 165.885 130.992 166.178 130.95 166.498C130.95 167.218 130.95 167.937 130.95 168.656C130.95 170.095 130.95 171.534 130.95 172.973C130.95 173.692 130.95 174.412 130.95 175.131C130.923 175.465 130.938 175.801 130.993 176.131C131.079 176.425 131.265 176.679 131.518 176.85C131.783 177.023 132.096 177.104 132.411 177.081H135.54L151.46 177.167L178.417 177.332L196.589 177.476L201.531 177.534H196.589H178.417L151.46 177.455L135.54 177.39H132.411C132.021 177.416 131.634 177.313 131.31 177.095C130.982 176.868 130.744 176.535 130.634 176.153C130.569 175.787 130.55 175.415 130.576 175.045C130.576 174.325 130.576 173.606 130.576 172.887C130.576 171.448 130.576 170.009 130.576 168.57C130.576 167.851 130.576 167.131 130.576 166.376C130.627 165.965 130.826 165.587 131.136 165.313C131.446 165.039 131.846 164.887 132.259 164.887L192.222 165.218L202.574 165.297C202.96 165.273 203.347 165.3 203.725 165.376C204.099 165.498 204.414 165.754 204.61 166.095C204.796 166.412 204.877 166.78 204.84 167.146C204.84 167.484 204.84 167.822 204.84 168.146C204.84 169.448 204.84 170.642 204.84 171.743C204.84 172.843 204.84 173.771 204.84 174.62C204.84 175.03 204.84 175.412 204.84 175.764C204.868 176.086 204.816 176.41 204.689 176.707C204.596 176.905 204.461 177.081 204.293 177.223C204.126 177.364 203.929 177.468 203.718 177.527C203.549 177.584 203.369 177.602 203.193 177.577Z" fill="#E0E0E0"/>
<path d="M169.737 137.547L135.897 137.393L135.883 140.566L169.723 140.719L169.737 137.547Z" fill="#4CAF4F"/>
<path opacity="0.2" d="M169.737 137.547L135.897 137.393L135.883 140.566L169.723 140.719L169.737 137.547Z" fill="white"/>
<path d="M138.957 171.707C138.936 171.996 138.83 172.273 138.653 172.503C138.476 172.732 138.235 172.905 137.961 173C137.687 173.094 137.39 173.106 137.109 173.033C136.828 172.961 136.575 172.808 136.38 172.593C136.186 172.377 136.058 172.11 136.014 171.823C135.97 171.536 136.011 171.243 136.132 170.979C136.254 170.716 136.45 170.493 136.696 170.34C136.942 170.187 137.228 170.109 137.518 170.117C137.919 170.139 138.295 170.319 138.564 170.616C138.834 170.914 138.975 171.306 138.957 171.707Z" fill="#4CAF4F"/>
<path d="M143.54 171.728C143.554 171.931 143.526 172.135 143.458 172.326C143.39 172.518 143.284 172.694 143.145 172.842C143.006 172.991 142.839 173.109 142.652 173.191C142.466 173.272 142.265 173.313 142.061 173.313C141.858 173.313 141.657 173.272 141.47 173.191C141.284 173.109 141.116 172.991 140.978 172.842C140.839 172.694 140.732 172.518 140.664 172.326C140.597 172.135 140.569 171.931 140.583 171.728C140.569 171.525 140.597 171.322 140.664 171.13C140.732 170.939 140.839 170.763 140.978 170.614C141.116 170.466 141.284 170.347 141.47 170.266C141.657 170.185 141.858 170.143 142.061 170.143C142.265 170.143 142.466 170.185 142.652 170.266C142.839 170.347 143.006 170.466 143.145 170.614C143.284 170.763 143.39 170.939 143.458 171.13C143.526 171.322 143.554 171.525 143.54 171.728Z" fill="#4CAF4F"/>
<path d="M148.129 171.75C148.108 172.039 148.002 172.316 147.825 172.546C147.648 172.776 147.408 172.949 147.133 173.043C146.859 173.137 146.563 173.149 146.282 173.077C146.001 173.004 145.747 172.851 145.553 172.636C145.358 172.421 145.231 172.153 145.187 171.866C145.143 171.58 145.184 171.286 145.305 171.022C145.426 170.759 145.622 170.537 145.868 170.383C146.115 170.23 146.401 170.152 146.691 170.16C147.091 170.184 147.465 170.364 147.734 170.661C148.003 170.959 148.145 171.349 148.129 171.75Z" fill="#4CAF4F"/>
<path d="M152.712 171.771C152.691 172.061 152.585 172.338 152.408 172.567C152.231 172.797 151.99 172.97 151.716 173.064C151.442 173.159 151.146 173.17 150.865 173.098C150.584 173.026 150.33 172.873 150.135 172.657C149.941 172.442 149.813 172.175 149.769 171.888C149.725 171.601 149.766 171.308 149.888 171.044C150.009 170.78 150.205 170.558 150.451 170.405C150.697 170.251 150.983 170.174 151.273 170.181C151.673 170.206 152.048 170.386 152.317 170.683C152.586 170.98 152.728 171.371 152.712 171.771Z" fill="#4CAF4F"/>
<path d="M157.295 171.786C157.275 172.076 157.17 172.353 156.994 172.584C156.818 172.815 156.577 172.989 156.303 173.084C156.029 173.18 155.732 173.192 155.451 173.121C155.169 173.049 154.915 172.896 154.72 172.681C154.524 172.466 154.396 172.199 154.352 171.912C154.307 171.625 154.348 171.331 154.469 171.067C154.59 170.803 154.786 170.58 155.033 170.427C155.279 170.273 155.566 170.195 155.856 170.203C156.255 170.227 156.628 170.406 156.897 170.702C157.166 170.997 157.309 171.386 157.295 171.786Z" fill="#4CAF4F"/>
<path d="M161.885 171.807C161.865 172.096 161.761 172.372 161.587 172.602C161.412 172.832 161.174 173.007 160.902 173.103C160.629 173.2 160.335 173.215 160.054 173.146C159.773 173.078 159.519 172.928 159.322 172.717C159.125 172.506 158.994 172.241 158.945 171.956C158.897 171.671 158.932 171.379 159.048 171.114C159.163 170.849 159.354 170.624 159.596 170.466C159.838 170.308 160.121 170.224 160.41 170.225C160.815 170.24 161.198 170.415 161.474 170.711C161.751 171.008 161.898 171.402 161.885 171.807Z" fill="#4CAF4F"/>
<path d="M166.467 171.829C166.481 172.032 166.454 172.235 166.386 172.427C166.318 172.619 166.211 172.794 166.073 172.943C165.934 173.092 165.766 173.21 165.58 173.291C165.393 173.372 165.192 173.414 164.989 173.414C164.785 173.414 164.584 173.372 164.398 173.291C164.211 173.21 164.044 173.092 163.905 172.943C163.766 172.794 163.66 172.619 163.592 172.427C163.524 172.235 163.496 172.032 163.51 171.829C163.496 171.626 163.524 171.423 163.592 171.231C163.66 171.039 163.766 170.864 163.905 170.715C164.044 170.566 164.211 170.448 164.398 170.367C164.584 170.286 164.785 170.244 164.989 170.244C165.192 170.244 165.393 170.286 165.58 170.367C165.766 170.448 165.934 170.566 166.073 170.715C166.211 170.864 166.318 171.039 166.386 171.231C166.454 171.423 166.481 171.626 166.467 171.829Z" fill="#4CAF4F"/>
<path d="M171.05 171.851C171.03 172.139 170.927 172.415 170.752 172.645C170.577 172.876 170.339 173.05 170.067 173.146C169.795 173.243 169.5 173.258 169.219 173.189C168.939 173.121 168.684 172.972 168.487 172.76C168.29 172.549 168.159 172.284 168.111 171.999C168.062 171.715 168.098 171.422 168.213 171.157C168.329 170.892 168.519 170.667 168.761 170.509C169.003 170.351 169.286 170.267 169.575 170.268C169.98 170.283 170.363 170.458 170.639 170.754C170.916 171.051 171.063 171.445 171.05 171.851Z" fill="#4CAF4F"/>
<path d="M175.632 171.872C175.613 172.162 175.508 172.44 175.332 172.67C175.155 172.901 174.915 173.075 174.641 173.171C174.366 173.266 174.07 173.279 173.788 173.207C173.507 173.136 173.253 172.983 173.057 172.768C172.862 172.553 172.734 172.285 172.689 171.998C172.645 171.711 172.686 171.417 172.807 171.153C172.928 170.889 173.124 170.667 173.37 170.513C173.617 170.359 173.903 170.282 174.194 170.289C174.592 170.314 174.966 170.493 175.235 170.788C175.504 171.084 175.646 171.473 175.632 171.872Z" fill="#4CAF4F"/>
<g opacity="0.2">
<path d="M138.957 171.707C138.936 171.996 138.83 172.273 138.653 172.503C138.476 172.732 138.235 172.905 137.961 173C137.687 173.094 137.39 173.106 137.109 173.033C136.828 172.961 136.575 172.808 136.38 172.593C136.186 172.377 136.058 172.11 136.014 171.823C135.97 171.536 136.011 171.243 136.132 170.979C136.254 170.716 136.45 170.493 136.696 170.34C136.942 170.187 137.228 170.109 137.518 170.117C137.919 170.139 138.295 170.319 138.564 170.616C138.834 170.914 138.975 171.306 138.957 171.707Z" fill="white"/>
<path d="M143.54 171.728C143.554 171.931 143.526 172.135 143.458 172.326C143.39 172.518 143.284 172.694 143.145 172.842C143.006 172.991 142.839 173.109 142.652 173.191C142.466 173.272 142.265 173.313 142.061 173.313C141.858 173.313 141.657 173.272 141.47 173.191C141.284 173.109 141.116 172.991 140.978 172.842C140.839 172.694 140.732 172.518 140.664 172.326C140.597 172.135 140.569 171.931 140.583 171.728C140.569 171.525 140.597 171.322 140.664 171.13C140.732 170.939 140.839 170.763 140.978 170.614C141.116 170.466 141.284 170.347 141.47 170.266C141.657 170.185 141.858 170.143 142.061 170.143C142.265 170.143 142.466 170.185 142.652 170.266C142.839 170.347 143.006 170.466 143.145 170.614C143.284 170.763 143.39 170.939 143.458 171.13C143.526 171.322 143.554 171.525 143.54 171.728Z" fill="white"/>
<path d="M148.129 171.75C148.108 172.039 148.002 172.316 147.825 172.546C147.648 172.776 147.408 172.948 147.133 173.043C146.859 173.137 146.563 173.149 146.282 173.076C146.001 173.004 145.747 172.851 145.553 172.636C145.358 172.421 145.231 172.153 145.187 171.866C145.143 171.579 145.184 171.286 145.305 171.022C145.426 170.759 145.622 170.537 145.868 170.383C146.115 170.23 146.401 170.152 146.691 170.16C147.091 170.184 147.465 170.364 147.734 170.661C148.003 170.958 148.145 171.349 148.129 171.75Z" fill="white"/>
<path d="M152.712 171.771C152.691 172.061 152.585 172.338 152.408 172.567C152.231 172.797 151.99 172.97 151.716 173.064C151.442 173.159 151.146 173.17 150.865 173.098C150.584 173.026 150.33 172.873 150.135 172.657C149.941 172.442 149.813 172.175 149.769 171.888C149.725 171.601 149.766 171.308 149.888 171.044C150.009 170.78 150.205 170.558 150.451 170.405C150.697 170.251 150.983 170.174 151.273 170.181C151.673 170.206 152.048 170.386 152.317 170.683C152.586 170.98 152.728 171.371 152.712 171.771Z" fill="white"/>
<path d="M157.295 171.786C157.275 172.076 157.17 172.353 156.994 172.584C156.818 172.815 156.577 172.989 156.303 173.084C156.029 173.18 155.732 173.192 155.451 173.121C155.169 173.049 154.915 172.896 154.72 172.681C154.524 172.466 154.396 172.199 154.352 171.912C154.307 171.625 154.348 171.331 154.469 171.067C154.59 170.803 154.786 170.58 155.033 170.427C155.279 170.273 155.566 170.195 155.856 170.203C156.255 170.227 156.628 170.406 156.897 170.702C157.166 170.997 157.309 171.386 157.295 171.786Z" fill="white"/>
<path d="M161.885 171.807C161.865 172.096 161.761 172.372 161.587 172.602C161.412 172.832 161.174 173.007 160.902 173.103C160.629 173.2 160.335 173.215 160.054 173.146C159.773 173.078 159.519 172.928 159.322 172.717C159.125 172.505 158.994 172.241 158.945 171.956C158.897 171.671 158.932 171.379 159.048 171.114C159.163 170.849 159.354 170.624 159.596 170.466C159.838 170.308 160.121 170.224 160.41 170.225C160.815 170.24 161.198 170.415 161.474 170.711C161.751 171.008 161.898 171.402 161.885 171.807Z" fill="white"/>
<path d="M166.467 171.829C166.481 172.032 166.454 172.235 166.386 172.427C166.318 172.619 166.211 172.794 166.073 172.943C165.934 173.092 165.766 173.21 165.58 173.291C165.393 173.372 165.192 173.414 164.989 173.414C164.785 173.414 164.584 173.372 164.398 173.291C164.211 173.21 164.044 173.092 163.905 172.943C163.766 172.794 163.66 172.619 163.592 172.427C163.524 172.235 163.496 172.032 163.51 171.829C163.496 171.626 163.524 171.423 163.592 171.231C163.66 171.039 163.766 170.864 163.905 170.715C164.044 170.566 164.211 170.448 164.398 170.367C164.584 170.286 164.785 170.244 164.989 170.244C165.192 170.244 165.393 170.286 165.58 170.367C165.766 170.448 165.934 170.566 166.073 170.715C166.211 170.864 166.318 171.039 166.386 171.231C166.454 171.423 166.481 171.626 166.467 171.829Z" fill="white"/>
<path d="M171.05 171.851C171.03 172.139 170.927 172.415 170.752 172.645C170.577 172.876 170.339 173.05 170.067 173.146C169.795 173.243 169.5 173.258 169.219 173.189C168.939 173.121 168.684 172.972 168.487 172.76C168.29 172.549 168.159 172.284 168.111 171.999C168.062 171.715 168.098 171.422 168.213 171.157C168.329 170.892 168.519 170.667 168.761 170.509C169.003 170.351 169.286 170.267 169.575 170.268C169.98 170.283 170.363 170.458 170.639 170.754C170.916 171.051 171.063 171.445 171.05 171.851Z" fill="white"/>
<path d="M175.632 171.872C175.613 172.162 175.508 172.439 175.332 172.67C175.155 172.901 174.915 173.075 174.641 173.171C174.366 173.266 174.07 173.279 173.788 173.207C173.507 173.135 173.253 172.983 173.057 172.768C172.862 172.553 172.734 172.285 172.689 171.998C172.645 171.711 172.686 171.417 172.807 171.153C172.928 170.889 173.124 170.667 173.37 170.513C173.617 170.359 173.903 170.282 174.194 170.289C174.592 170.314 174.966 170.493 175.235 170.788C175.504 171.084 175.646 171.473 175.632 171.872Z" fill="white"/>
</g>
<path d="M169.122 68.0186C169.622 67.7985 170.046 67.4364 170.341 66.9772C170.637 66.5179 170.79 65.982 170.784 65.436C170.802 65.081 170.748 64.726 170.625 64.3925C170.502 64.059 170.313 63.7541 170.068 63.4963C169.823 63.2384 169.529 63.0331 169.202 62.8928C168.876 62.7525 168.524 62.6801 168.169 62.6801C167.813 62.6801 167.461 62.7525 167.135 62.8928C166.808 63.0331 166.514 63.2384 166.269 63.4963C166.024 63.7541 165.835 64.059 165.712 64.3925C165.589 64.726 165.535 65.081 165.554 65.436C165.543 65.9874 165.695 66.5298 165.992 66.9946C166.289 67.4594 166.717 67.8257 167.223 68.0474C163.194 68.6517 163.374 73.0257 163.374 73.0257L172.899 73.0689C172.899 73.0689 173.122 68.6157 169.122 68.0186Z" fill="#4CAF4F"/>
<path opacity="0.1" d="M169.122 68.0186C169.622 67.7985 170.046 67.4364 170.341 66.9772C170.637 66.5179 170.79 65.982 170.784 65.436C170.802 65.081 170.748 64.726 170.625 64.3925C170.502 64.059 170.313 63.7541 170.068 63.4963C169.823 63.2384 169.529 63.0331 169.202 62.8928C168.876 62.7525 168.524 62.6801 168.169 62.6801C167.813 62.6801 167.461 62.7525 167.135 62.8928C166.808 63.0331 166.514 63.2384 166.269 63.4963C166.024 63.7541 165.835 64.059 165.712 64.3925C165.589 64.726 165.535 65.081 165.554 65.436C165.543 65.9874 165.695 66.5298 165.992 66.9946C166.289 67.4594 166.717 67.8257 167.223 68.0474C163.194 68.6517 163.374 73.0257 163.374 73.0257L172.899 73.0689C172.899 73.0689 173.122 68.6157 169.122 68.0186Z" fill="black"/>
<path d="M184.599 75.89L150.651 75.736L150.632 79.7934L184.581 79.9474L184.599 75.89Z" fill="#4CAF4F"/>
<path opacity="0.2" d="M184.599 75.89L150.651 75.736L150.632 79.7934L184.581 79.9474L184.599 75.89Z" fill="white"/>
<path d="M59.7934 96.9172H59.4553L58.4769 96.9892C57.9474 97.021 57.4209 97.0907 56.9014 97.1978C56.5649 97.2451 56.2311 97.3099 55.9014 97.392L54.7864 97.7014C52.8884 98.2837 51.0978 99.1705 49.4843 100.327C47.3526 101.874 45.5727 103.856 44.2614 106.14C43.4908 107.457 42.8775 108.86 42.4342 110.32C41.9683 111.907 41.7001 113.545 41.6356 115.197C41.5927 116.065 41.6072 116.935 41.6788 117.802C41.6788 118.24 41.8011 118.679 41.8586 119.125C41.907 119.575 41.9912 120.02 42.1104 120.456C42.7573 123.343 44.0699 126.039 45.9435 128.328C47.8171 130.618 50.1998 132.438 52.9015 133.643C54.8569 134.487 56.9528 134.958 59.0812 135.031C61.2795 135.152 63.48 134.837 65.5559 134.103L66.1889 133.866H66.2753L66.3472 133.909L75.4189 138.513L75.1528 138.744C74.1816 135.736 73.2463 132.823 72.3399 130.024V129.916L72.419 129.837C74.6197 127.621 76.2533 124.906 77.1815 121.924C78.0221 119.197 78.2674 116.322 77.9009 113.492C77.5748 110.978 76.7663 108.55 75.5196 106.341C74.4451 104.445 73.0588 102.742 71.419 101.306C70.0662 100.169 68.5688 99.2154 66.9659 98.4711C65.7531 97.9481 64.4899 97.5503 63.1962 97.2841L61.7574 97.0467L60.7143 96.9676L60.0812 96.9244H59.8654C59.9371 96.9165 60.0095 96.9165 60.0812 96.9244H60.7215L61.7646 96.9676L63.2034 97.1762C64.5132 97.4229 65.7936 97.8063 67.0235 98.3201C68.6539 99.0555 70.1782 100.006 71.5557 101.147C73.2256 102.578 74.6413 104.28 75.7427 106.183C77.0247 108.415 77.858 110.876 78.1958 113.428C78.5928 116.301 78.3646 119.226 77.5268 122.003C76.5926 125.047 74.9337 127.82 72.6924 130.082L72.7355 129.895C73.642 132.693 74.5844 135.607 75.5628 138.607L75.6995 139.046L75.2894 138.837L66.2177 134.24H66.376L65.7285 134.477C63.6127 135.222 61.3715 135.545 59.1316 135.427C56.9573 135.344 54.8176 134.856 52.8224 133.988C49.0165 132.358 45.8501 129.525 43.8082 125.924C42.8686 124.26 42.1824 122.466 41.7723 120.6C41.66 120.153 41.5759 119.698 41.5205 119.24C41.463 118.787 41.3694 118.341 41.3479 117.895C41.1532 115.335 41.4237 112.762 42.1464 110.298C42.6007 108.818 43.2311 107.398 44.024 106.068C45.3665 103.763 47.1836 101.769 49.3548 100.219C50.9948 99.0596 52.8156 98.1796 54.7432 97.615L55.8727 97.3273C56.2051 97.2502 56.5413 97.1902 56.8798 97.1474C57.4047 97.0502 57.9362 96.9925 58.4697 96.9748L59.4553 96.9388C59.5674 96.9237 59.6804 96.9165 59.7934 96.9172Z" fill="#4CAF4F"/>
<path d="M63.894 113.694H62.5631L59.6855 109.651V106.996C59.6855 106.996 57.628 106.867 57.8726 110.341C58.1172 113.816 57.8726 112.931 57.8726 112.931C57.8726 112.931 53.5058 112.931 53.1461 113.327C52.7864 113.723 52.7648 117.938 52.7144 120.291C52.6869 120.858 52.8496 121.418 53.1767 121.882C53.5039 122.346 53.9767 122.687 54.5201 122.852C54.6725 122.894 54.8297 122.916 54.9878 122.917C56.0813 122.917 61.6423 122.032 61.6423 122.032H63.9372L63.894 113.694Z" fill="#4CAF4F"/>
<path d="M67.6997 112.982L66.8795 122.075H64.6062V113.169L67.6997 112.982Z" fill="#4CAF4F"/>
<path d="M94.8142 298.106V291.955L83.7857 291.876L83.6921 301.178L84.3756 301.229C87.4187 301.423 99.8572 301.711 101.9 301.078C104.174 300.373 94.8142 298.106 94.8142 298.106Z" fill="#4CAF4F"/>
<path d="M102.159 300.502C102.159 300.603 98.0301 300.689 92.9439 300.689C87.8577 300.689 83.7283 300.603 83.7283 300.502C83.7283 300.401 87.8577 300.315 92.9439 300.315C98.0301 300.315 102.159 300.401 102.159 300.502Z" fill="#263238"/>
<path d="M95.0084 299.365C94.9149 299.315 95.0084 298.991 95.2315 298.646C95.4545 298.301 95.7566 298.157 95.8286 298.229C95.9005 298.301 95.7494 298.574 95.5336 298.869C95.3178 299.164 95.102 299.416 95.0084 299.365Z" fill="#263238"/>
<path d="M95.7134 299.768C95.6127 299.768 95.6631 299.365 95.8789 298.984C96.0947 298.603 96.3825 298.372 96.4616 298.43C96.5407 298.488 96.4112 298.811 96.2098 299.149C96.0084 299.488 95.8069 299.804 95.7134 299.768Z" fill="#263238"/>
<path d="M87.0519 300.473C87.0087 300.473 86.8433 300.344 86.6059 300.07C86.3161 299.719 85.9933 299.396 85.6419 299.106C85.2963 298.83 84.8847 298.649 84.4477 298.581C84.1095 298.538 83.8937 298.581 83.8721 298.538C83.8505 298.495 84.0592 298.344 84.4548 298.315C84.977 298.304 85.4864 298.477 85.8937 298.804C86.2752 299.115 86.597 299.493 86.8433 299.919C87.0087 300.236 87.0951 300.444 87.0519 300.473Z" fill="#263238"/>
<path d="M95.0444 298.207C95.0947 298.293 94.9077 298.509 94.5912 298.624C94.2746 298.739 93.9941 298.696 93.9797 298.624C93.9653 298.552 94.1883 298.401 94.4617 298.301C94.735 298.2 94.9868 298.121 95.0444 298.207Z" fill="#263238"/>
<path d="M94.8719 297.61C94.8719 297.718 94.5842 297.804 94.2101 297.811C93.836 297.819 93.541 297.732 93.5482 297.632C93.5554 297.531 93.8504 297.437 94.2101 297.43C94.5698 297.423 94.8575 297.509 94.8719 297.61Z" fill="#263238"/>
<path d="M121.972 298.106V291.955L110.943 291.876L110.85 301.085L111.533 301.135C114.576 301.329 127.022 301.711 129.058 301.078C131.331 300.373 121.972 298.106 121.972 298.106Z" fill="#4CAF4F"/>
<path d="M129.317 300.516C129.317 300.617 125.195 300.703 120.101 300.703C115.008 300.703 110.893 300.617 110.893 300.516C110.893 300.416 115.015 300.329 120.101 300.329C125.188 300.329 129.317 300.416 129.317 300.516Z" fill="#263238"/>
<path d="M122.166 299.365C122.08 299.315 122.166 298.991 122.389 298.646C122.612 298.301 122.914 298.157 122.986 298.229C123.058 298.301 122.907 298.574 122.691 298.869C122.475 299.164 122.26 299.416 122.166 299.365Z" fill="#263238"/>
<path d="M122.871 299.768C122.778 299.768 122.821 299.365 123.044 298.984C123.267 298.603 123.547 298.372 123.626 298.43C123.706 298.488 123.569 298.811 123.367 299.149C123.166 299.488 122.972 299.804 122.871 299.768Z" fill="#263238"/>
<path d="M114.209 300.473C114.166 300.473 114.008 300.344 113.763 300.07C113.474 299.719 113.151 299.396 112.799 299.106C112.454 298.83 112.042 298.649 111.605 298.581C111.274 298.538 111.051 298.581 111.03 298.538C111.008 298.495 111.217 298.344 111.612 298.315C112.134 298.304 112.644 298.477 113.051 298.804C113.435 299.113 113.757 299.491 114.001 299.919C114.166 300.236 114.253 300.444 114.209 300.473Z" fill="#263238"/>
<path d="M122.202 298.207C122.252 298.293 122.065 298.509 121.749 298.624C121.432 298.739 121.152 298.696 121.137 298.624C121.123 298.552 121.346 298.401 121.619 298.301C121.893 298.2 122.145 298.121 122.202 298.207Z" fill="#263238"/>
<path d="M122.044 297.61C122.044 297.718 121.756 297.804 121.382 297.811C121.008 297.819 120.72 297.732 120.727 297.632C120.734 297.531 121.022 297.437 121.382 297.43C121.742 297.423 122.044 297.509 122.044 297.61Z" fill="#263238"/>
<path d="M162.604 115.449C162.316 115.154 161.604 115.298 161.604 115.298C161.675 114.884 161.675 114.46 161.604 114.046C161.474 113.643 160.568 113.723 160.568 113.723C160.526 113.383 160.526 113.04 160.568 112.701C160.575 112.626 160.559 112.55 160.522 112.485C160.484 112.419 160.428 112.366 160.359 112.334C159.931 112.159 159.47 112.076 159.007 112.089C158.453 111.694 160.697 108.55 161.532 107.543C162.367 106.536 162.215 105.752 161.474 105.752C160.964 105.752 158.345 108.773 157.539 109.787C156.734 110.802 154.597 113.622 154.525 111.37C154.453 109.118 153.547 107.421 152.978 107.133C152.41 106.845 151.806 107.521 152.115 108.147C152.387 108.858 152.556 109.604 152.619 110.363C152.697 110.967 152.67 111.581 152.539 112.176C152.301 113.283 151.976 114.371 151.568 115.428H151.511C151.511 115.428 135.813 130.485 134.677 131.557C133.662 132.521 113.26 130.413 109.166 129.981C107.775 129.778 106.371 129.681 104.965 129.693C103.188 129.772 102.872 130.024 101.102 130.046C96.6325 130.095 92.1735 130.488 87.7641 131.219C85.7675 131.558 83.9024 132.439 82.3725 133.766C80.8425 135.093 79.7064 136.815 79.088 138.743C74.9658 151.621 65.6279 182.102 63.9805 199.224C62.7356 201.481 61.6118 203.804 60.6137 206.181C59.4554 209.332 59.736 209.44 60.1245 209.511C61.1748 209.706 62.369 204.051 62.8151 205.418C63.2611 206.785 60.5489 212.159 61.6496 212.317C63.0884 212.519 64.2323 206.562 64.369 206.087C64.5057 205.612 65.2179 205.763 65.0884 206.209C64.8798 206.842 62.8582 213.555 64.2683 213.77C65.0452 213.885 65.1316 212.468 65.1316 212.468C65.1316 212.468 66.5704 206.044 67.225 206.173C67.8797 206.303 67.1819 210.094 66.8509 211.36C66.52 212.627 66.9804 213.267 67.6567 212.957C68.1171 212.742 69.2178 208.893 69.5199 207.641C69.8221 206.389 70.5775 202.922 71.5918 204.929C72.6062 206.936 74.1457 208.101 74.7788 208.13C74.9215 208.114 75.0559 208.055 75.1649 207.961C75.2739 207.868 75.3524 207.744 75.3903 207.605C75.4282 207.467 75.4238 207.32 75.3776 207.184C75.3315 207.048 75.2457 206.929 75.1313 206.842C74.5868 206.311 74.1194 205.705 73.7429 205.044C73.4073 204.529 73.1638 203.959 73.0234 203.361C72.7335 202.167 72.5648 200.948 72.5199 199.72L72.4048 199.001C74.0162 191.023 78.6564 167.606 85.3541 152.65L88.1022 158.304L89.2964 162.491L81.9729 180.57L113.209 180.16L108.548 162.218L114.209 143.513C120.332 143.65 136.051 143.88 138.669 142.693C141.964 141.254 159.007 119.73 159.007 119.73C160.118 118.866 161.182 117.944 162.194 116.967C162.194 116.967 163.23 116.097 162.604 115.449Z" fill="#FFBE9D"/>
<path d="M80.5987 167.21C81.5051 164.117 86.1597 148.822 86.1597 148.822C86.1597 148.822 88.4474 161.29 87.8431 162.793C87.2872 164.08 86.6305 165.322 85.8791 166.505C80.5987 174.541 81.2893 178.563 81.2893 178.563L113.195 177.591C113.267 173.131 110.627 162.757 110.08 161.103C109.533 159.448 111.353 154.031 111.353 154.031C111.353 154.031 114.95 150.369 114.821 148.484C114.753 146.791 114.543 145.107 114.195 143.448L133.619 144.168L133.007 131.003L105.109 128.211C104.138 130.952 95.3537 129.607 95.3537 129.607C85.8719 129.924 85.282 131.665 81.3397 134.729C77.3973 137.794 70.8723 164.095 70.8723 164.095L80.5987 167.21Z" fill="#4CAF4F"/>
<path d="M99.4617 164.095C98.9088 164.194 98.3456 164.223 97.7855 164.182C96.7423 164.182 95.3107 164.11 93.7352 163.952C92.1597 163.793 90.7353 163.57 89.7209 163.369C89.1616 163.297 88.6132 163.157 88.0879 162.952C88.6503 162.952 89.2115 163.005 89.7641 163.11C90.7857 163.239 92.2029 163.419 93.7712 163.577C95.3395 163.736 96.7639 163.844 97.7927 163.916C98.3534 163.923 98.9123 163.983 99.4617 164.095Z" fill="#263238"/>
<path d="M101.649 161.383C101.095 161.654 100.511 161.855 99.9076 161.98C97.0374 162.735 94.0762 163.086 91.1093 163.023C90.4953 163.043 89.8813 162.985 89.282 162.851C89.8879 162.774 90.4987 162.743 91.1093 162.757C92.2387 162.721 93.7927 162.642 95.5048 162.441C97.217 162.239 98.7422 161.952 99.8213 161.721C100.421 161.561 101.032 161.448 101.649 161.383Z" fill="#263238"/>
<path d="M112.382 149.283C112.368 149.831 112.293 150.377 112.159 150.909C111.972 151.909 111.684 153.276 111.318 154.772C110.951 156.268 110.598 157.65 110.282 158.585C110.154 159.12 109.966 159.639 109.72 160.131C109.761 159.585 109.862 159.044 110.023 158.52C110.296 157.398 110.605 156.103 110.951 154.686C111.296 153.268 111.627 151.973 111.9 150.851C111.998 150.311 112.159 149.784 112.382 149.283Z" fill="#263238"/>
<path d="M80.9369 165.376C79.2726 165.119 77.6301 164.737 76.0234 164.232C74.3816 163.848 72.7705 163.343 71.2034 162.721C72.8669 162.983 74.5091 163.365 76.1169 163.865C77.7591 164.248 79.3702 164.753 80.9369 165.376Z" fill="#263238"/>
<path d="M114.54 143.29C114.269 143.337 113.992 143.337 113.72 143.29C112.969 143.213 112.231 143.036 111.526 142.765C110.349 142.323 109.278 141.639 108.381 140.758C107.484 139.877 106.781 138.819 106.318 137.65C105.805 136.364 105.586 134.981 105.677 133.6C105.709 132.461 106.05 131.352 106.663 130.391C107.094 129.744 107.738 129.268 108.483 129.046C108.682 128.991 108.888 128.964 109.094 128.967C109.238 128.967 109.31 128.967 109.31 128.967C109.31 128.967 109.008 128.967 108.526 129.161C107.843 129.414 107.263 129.887 106.879 130.506C105.9 132.046 105.627 134.859 106.67 137.485C107.156 138.723 107.916 139.834 108.893 140.736C109.694 141.474 110.616 142.068 111.62 142.492C112.561 142.864 113.54 143.131 114.54 143.29Z" fill="#263238"/>
<path d="M131.31 143.909C131.13 141.703 131.072 139.488 131.137 137.276C131.081 135.065 131.148 132.853 131.339 130.65C131.519 132.854 131.576 135.066 131.511 137.276C131.572 139.489 131.504 141.704 131.31 143.909Z" fill="#263238"/>
<path d="M104.922 129.017C105.001 127.413 105.167 125.6 105.167 125.6C105.167 125.6 109.138 125.161 109.375 121.061C109.612 116.96 109.375 107.5 109.375 107.5L102.181 103.816L94.1956 110.097L95.4257 130.6L102.749 131.067C103.309 131.083 103.852 130.876 104.259 130.491C104.667 130.107 104.905 129.577 104.922 129.017Z" fill="#FFBE9D"/>
<path d="M105.634 117.816C105.634 117.816 105.634 117.895 105.569 117.989C105.516 118.056 105.447 118.11 105.368 118.145C105.289 118.18 105.202 118.196 105.116 118.19C104.656 118.19 104.21 117.658 104.052 117.039C103.976 116.739 103.976 116.425 104.052 116.125C104.066 115.994 104.114 115.869 104.189 115.761C104.264 115.653 104.365 115.566 104.483 115.507C104.58 115.467 104.689 115.467 104.785 115.507C104.857 115.542 104.915 115.6 104.951 115.672C105.001 115.794 104.951 115.874 104.951 115.866C104.951 115.859 104.951 115.794 104.879 115.722C104.841 115.671 104.786 115.635 104.724 115.622C104.661 115.609 104.596 115.619 104.541 115.651C104.452 115.704 104.379 115.779 104.328 115.868C104.276 115.957 104.248 116.058 104.246 116.161C104.185 116.429 104.185 116.707 104.246 116.974C104.39 117.535 104.778 117.989 105.123 118.032C105.191 118.041 105.26 118.036 105.325 118.018C105.391 117.999 105.452 117.967 105.505 117.924C105.591 117.866 105.62 117.809 105.634 117.816Z" fill="#EB996E"/>
<path d="M111.843 105.284C111.289 103.399 109.282 102.464 107.454 101.946C104.67 101.155 101.663 100.809 98.9437 101.809C96.2244 102.809 92.9583 104.565 92.9583 107.564C91.354 107.435 90.4331 108.838 89.8001 110.579C89.3953 111.639 89.1528 112.755 89.0807 113.888C88.8792 117.816 87.7785 123.24 85.2318 126.118C83.793 127.722 81.8003 128.83 80.9802 130.83C80.2607 132.564 80.6348 134.621 79.9658 136.377C79.3687 137.923 78.0522 139.024 77.0882 140.369C76.106 141.896 75.5281 143.646 75.4085 145.457C75.289 147.268 75.6318 149.08 76.4047 150.722C77.1832 152.322 78.2793 153.746 79.6262 154.909C80.9731 156.071 82.5426 156.948 84.2391 157.484C87.5994 158.506 91.1829 158.541 94.5625 157.585C97.099 156.978 99.4651 155.805 101.483 154.153C103.548 152.467 104.966 150.118 105.498 147.506C106.008 144.571 105.188 141.585 104.577 138.664C102.663 129.434 103.21 128.952 105.627 120.384C105.685 120.233 105.713 120.075 105.757 119.924C105.8 119.773 105.821 119.701 105.85 119.586C105.919 119.247 105.955 118.903 105.958 118.557C105.605 118.688 105.222 118.716 104.853 118.637C104.485 118.558 104.147 118.376 103.879 118.111C103.61 117.829 103.423 117.479 103.337 117.099C103.25 116.719 103.269 116.323 103.39 115.953C103.559 115.548 103.812 115.183 104.132 114.882C104.452 114.58 104.831 114.35 105.246 114.205C106.044 113.874 106.9 113.701 107.685 113.334C109.346 112.543 110.497 110.903 111.282 109.183C111.926 107.991 112.125 106.609 111.843 105.284Z" fill="#263238"/>
<path d="M105.922 118.01C106.074 118.235 106.199 118.476 106.296 118.73C106.512 119.183 106.8 119.823 107.116 120.564L107.174 120.701H107.023L106.303 120.766C105.807 120.766 105.39 120.859 104.9 120.852C104.858 120.842 104.818 120.822 104.786 120.793C104.753 120.764 104.728 120.728 104.713 120.686C104.692 120.621 104.692 120.55 104.713 120.485C104.73 120.388 104.752 120.292 104.778 120.197L104.908 119.686C104.973 119.346 105.074 119.013 105.21 118.694C105.196 119.041 105.146 119.386 105.059 119.722L104.958 120.233C104.922 120.406 104.857 120.672 104.958 120.65C105.318 120.65 105.828 120.571 106.303 120.543L107.023 120.478L106.929 120.636C106.62 119.917 106.361 119.24 106.21 118.773C106.077 118.534 105.98 118.277 105.922 118.01Z" fill="#4CAF4F"/>
<path d="M81.2894 178.563L113.195 177.591L127.08 231.791L124.526 293.963H107.656L109.72 233.115L97.3825 195.382L99.2818 296.373L82.2319 296.624L80.4405 201.699C80.3614 199.058 79.4981 193.109 79.8218 190.49L81.2894 178.563Z" fill="#263238"/>
<path d="M101.627 196.152C101.105 196.185 100.58 196.154 100.066 196.059C99.1019 195.944 97.7854 195.742 96.3393 195.454C94.8933 195.167 93.5984 194.836 92.6632 194.569C92.1632 194.46 91.6796 194.285 91.2244 194.052C91.2244 193.944 93.5696 194.505 96.4473 195.087C99.3249 195.67 101.641 196.044 101.627 196.152Z" fill="#455A64"/>
<path d="M124.353 290.553C124.353 290.653 120.533 290.74 115.821 290.74C111.109 290.74 107.281 290.653 107.281 290.553C107.281 290.452 111.102 290.366 115.821 290.366C120.54 290.366 124.353 290.445 124.353 290.553Z" fill="#455A64"/>
<path d="M99.1307 293.747C99.1307 293.855 95.4185 293.934 90.8431 293.934C86.2677 293.934 82.5627 293.855 82.5627 293.747C82.5627 293.639 86.2749 293.56 90.8431 293.56C95.4113 293.56 99.1307 293.646 99.1307 293.747Z" fill="#455A64"/>
<path d="M96.9294 293.488C96.8287 293.488 96.3827 271.424 95.9294 244.208C95.4762 216.993 95.21 194.915 95.3035 194.915C95.3971 194.915 95.8575 216.972 96.3035 244.201C96.7496 271.431 97.0373 293.488 96.9294 293.488Z" fill="#455A64"/>
<path d="M122.087 290.553C122.079 290.454 122.079 290.356 122.087 290.258V289.394C122.087 288.617 122.145 287.502 122.188 286.085C122.288 283.207 122.432 279.028 122.612 273.906C123.001 263.604 123.547 249.403 124.145 233.727C124.145 233.576 124.145 233.432 124.145 233.302V233.353C120.368 218.245 116.95 204.533 114.469 194.613L111.591 182.879C111.26 181.505 111.008 180.433 110.828 179.685C110.742 179.332 110.684 179.059 110.634 178.85C110.606 178.757 110.589 178.66 110.584 178.563C110.621 178.653 110.65 178.747 110.67 178.843C110.728 179.045 110.8 179.318 110.9 179.663C111.095 180.383 111.375 181.476 111.735 182.843C112.454 185.62 113.469 189.62 114.735 194.548C117.238 204.461 120.691 218.137 124.519 233.266V233.317C124.519 233.446 124.519 233.597 124.519 233.741C123.878 249.417 123.296 263.611 122.871 273.913C122.648 279.042 122.461 283.193 122.332 286.085C122.26 287.524 122.202 288.617 122.166 289.394C122.166 289.761 122.123 290.049 122.116 290.258C122.117 290.357 122.107 290.456 122.087 290.553Z" fill="#455A64"/>
<path d="M116.584 232.036C115.372 232.435 114.124 232.712 112.857 232.863C111.303 233.13 109.979 233.317 109.382 233.345V233.202C109.577 233.259 109.677 233.295 109.677 233.324C109.677 233.353 109.555 233.324 109.354 233.324H108.922L109.354 233.194C109.915 233.029 111.238 232.756 112.792 232.475C114.039 232.205 115.308 232.058 116.584 232.036Z" fill="#455A64"/>
<path d="M116.289 234.101C115.166 234.152 114.042 234.102 112.929 233.95C111.805 233.927 110.686 233.804 109.584 233.583C111.832 233.399 114.095 233.574 116.289 234.101Z" fill="#455A64"/>
<path opacity="0.2" d="M81.1528 179.706C81.5307 180.192 82.0066 180.592 82.5496 180.881C83.0925 181.169 83.6903 181.341 84.3038 181.383C85.5888 181.535 86.8886 181.511 88.167 181.311C96.4042 180.397 105.131 179.555 113.195 177.591C102.757 178.174 91.7281 177.98 81.2895 178.563L81.1816 179.455" fill="black"/>
<g opacity="0.2">
<path d="M91.908 194.418L97.7927 217.252L97.3826 195.382L91.908 194.418Z" fill="black"/>
</g>
</svg>
