<svg width="34" height="35" viewBox="0 0 34 35" fill="none" xmlns="http://www.w3.org/2000/svg">
<g clip-path="url(#clip0_211_2056)">
<path d="M31.7852 10.2257C31.7852 10.2492 31.7852 10.2787 31.779 10.2963C31.7484 10.5258 31.7484 10.7553 31.7667 10.9906C31.779 11.0495 31.7913 11.1083 31.8403 11.1554C31.92 11.2437 32.0426 11.226 32.0917 11.1201C32.1162 11.0671 32.1162 11.0142 32.1039 10.9612C32.0426 10.7376 32.0304 10.5023 32.0243 10.2728C32.0243 10.261 32.0243 10.2434 32.0243 10.2257C32.0917 10.2198 32.153 10.2139 32.2082 10.2139C32.2511 10.2081 32.2879 10.2022 32.3186 10.1845C32.4105 10.1374 32.4105 10.0374 32.3124 9.99034C32.2756 9.97268 32.2266 9.9668 32.1837 9.9668C32.0304 9.97268 31.8771 9.97268 31.7238 9.97268C31.6687 9.97268 31.6135 9.97857 31.5583 9.98445C31.5276 9.99034 31.4909 9.99034 31.4664 10.008C31.4234 10.0256 31.3989 10.0551 31.3989 10.0962C31.405 10.1374 31.4234 10.161 31.4664 10.1786C31.4909 10.1963 31.5215 10.2022 31.5522 10.2022C31.6257 10.2081 31.7055 10.2198 31.7852 10.2257ZM33.4711 10.4964C33.4711 10.5023 33.4772 10.5081 33.4772 10.5081C33.5018 10.667 33.5263 10.82 33.5447 10.973C33.5508 11.026 33.557 11.073 33.5937 11.1142C33.6734 11.2142 33.7961 11.2025 33.8512 11.0966C33.8758 11.0436 33.8819 10.9906 33.8696 10.9318C33.8328 10.7553 33.8144 10.5788 33.7777 10.4081C33.7531 10.3022 33.7225 10.2022 33.6918 10.108C33.6734 10.0492 33.6305 10.008 33.557 10.0021C33.4834 9.99034 33.4282 10.0256 33.3975 10.0786C33.3608 10.1257 33.3301 10.1727 33.3056 10.2257C33.2627 10.3199 33.2259 10.414 33.1769 10.5023C33.1707 10.5258 33.1646 10.5435 33.1523 10.5611C33.1462 10.5493 33.1401 10.5435 33.1401 10.5435C33.0603 10.3963 32.9868 10.2492 32.9071 10.108C32.8948 10.0962 32.8887 10.0845 32.8826 10.0727C32.8458 10.0198 32.8029 9.99034 32.7354 9.99034C32.6741 9.99622 32.625 10.0315 32.5944 10.0845C32.5821 10.108 32.5821 10.1257 32.576 10.1492C32.5515 10.3375 32.5208 10.5258 32.4963 10.7141C32.484 10.82 32.4779 10.9259 32.4779 11.0318C32.4718 11.0554 32.4779 11.0848 32.4902 11.1083C32.5025 11.1554 32.5392 11.1848 32.5883 11.1907C32.6496 11.1966 32.6925 11.1789 32.7109 11.1319C32.7293 11.0966 32.7354 11.0671 32.7416 11.0377C32.7661 10.9318 32.7845 10.8318 32.8029 10.7317C32.8151 10.6729 32.8212 10.6258 32.8397 10.5611C32.8519 10.5846 32.8641 10.6023 32.8764 10.6199C32.9316 10.6906 32.9868 10.7612 33.0542 10.82C33.1217 10.8671 33.1769 10.8612 33.232 10.8082C33.2443 10.7965 33.2504 10.7906 33.2627 10.7788C33.3179 10.6964 33.3853 10.6141 33.4405 10.5317C33.4527 10.5199 33.4589 10.5081 33.4711 10.4964Z" fill="#3A3B7B"/>
<path d="M19.3447 10.3412C19.3021 10.4531 19.294 10.5336 19.3136 10.6006C19.3354 10.6917 19.3918 10.7215 19.4683 10.6983C20.1884 10.5274 21.7675 11.0125 22.3521 11.1477C22.49 11.1761 22.6022 11.0053 22.5081 10.8521C22.3708 10.7038 20.7924 10.0688 20.1902 10.0342C19.9541 10.0214 19.5321 9.96326 19.3447 10.3412Z" fill="#3A3B7B"/>
<path d="M25.516 8.28562C25.5928 8.32813 25.6357 8.36869 25.6568 8.414C25.6884 8.47344 25.6717 8.51456 25.6187 8.53555C25.1427 8.75852 24.5093 9.71846 24.2536 10.0495C24.1917 10.1257 24.0487 10.0814 24.0271 9.95619C24.0315 9.81458 24.593 8.77283 24.9064 8.48909C25.0295 8.37831 25.233 8.16095 25.516 8.28562Z" fill="#3A3B7B"/>
<path d="M21.7255 7.81311C21.8177 7.74641 21.9135 7.72304 21.9624 7.76638C22.6806 8.35588 23.0615 9.28941 23.2973 10.144C23.3062 10.1639 23.3067 10.1925 23.2996 10.2223C23.2967 10.2478 23.2773 10.2747 23.2465 10.2955C23.2136 10.3185 23.1853 10.3255 23.1719 10.3057C22.8572 9.8948 21.0594 8.29602 21.7255 7.81311Z" fill="#3A3B7B"/>
<path d="M6.51682 18.0335C6.68895 17.9105 6.87608 17.8081 7.07411 17.7286C7.28129 17.6718 7.50211 17.6812 7.70322 17.7555C7.90428 17.8298 8.07473 17.9649 8.18867 18.1405C8.2906 18.3155 8.33046 18.5177 8.30233 18.7164C8.27419 18.9151 8.17955 19.0997 8.03262 19.2423C7.91872 19.3579 7.7894 19.4586 7.64812 19.5418C7.0184 19.9323 6.38307 20.3013 5.74777 20.6918C5.61777 20.7895 5.47987 20.8772 5.33537 20.9539C5.11559 21.0591 4.86441 21.0873 4.62526 21.0335C4.38613 20.9799 4.17407 20.8476 4.02575 20.6597C3.91488 20.5267 3.82131 20.3812 3.74711 20.2265C3.14524 19.0123 2.52108 17.8035 1.94151 16.5679C1.67401 16.0331 1.45667 15.418 1.2449 14.8243C1.15328 14.6518 1.13539 14.4518 1.19503 14.2668C1.25468 14.0818 1.38716 13.9265 1.56429 13.8338C1.74143 13.7412 1.94924 13.7185 2.14353 13.7706C2.33782 13.8227 2.50326 13.9455 2.60467 14.1129C2.91638 14.5105 3.1923 14.9328 3.42946 15.3752C4.03132 16.4449 4.60533 17.5147 5.18491 18.5523C5.21865 18.6097 5.25587 18.665 5.29636 18.7181C5.73259 18.5421 6.14289 18.3119 6.51682 18.0335Z" fill="#3A3B7B"/>
<path d="M12.7398 17.6604C11.3634 19.2062 9.05619 18.8157 7.89704 16.826C7.07224 15.4139 6.92736 13.0819 8.72184 11.611C9.10503 11.3031 9.56323 11.0933 10.0537 11.0013C10.6551 10.9185 11.2684 11.0203 11.8059 11.2922C12.3433 11.5641 12.7775 11.992 13.0464 12.5149C14.0272 14.2265 13.8879 16.4088 12.7398 17.6604ZM12.1826 14.0554C12.0363 13.6348 11.743 13.2757 11.3522 13.0391C11.1311 12.8878 10.8624 12.8143 10.5914 12.8309C10.3204 12.8474 10.0636 12.9531 9.86426 13.13C9.06736 13.8093 8.90014 15.4193 9.47971 16.3767C9.5536 16.5328 9.66208 16.6716 9.79766 16.7832C9.93324 16.8949 10.0926 16.9768 10.2646 17.0231C10.4366 17.0695 10.617 17.0792 10.7934 17.0517C10.9697 17.024 11.1376 16.9598 11.2854 16.8634C11.7173 16.542 12.0343 16.0993 12.192 15.5971C12.3499 15.0948 12.3407 14.5578 12.1659 14.0607L12.1826 14.0554Z" fill="#3A3B7B"/>
<path d="M18.3572 14.7292C18.2163 14.7583 18.0707 14.7601 17.929 14.7343C17.7874 14.7086 17.6525 14.656 17.5324 14.5795C17.4273 14.5218 17.3368 14.4425 17.2675 14.3472C17.1982 14.2519 17.1517 14.1431 17.1315 14.0285C17.1112 13.9139 17.1177 13.7965 17.1504 13.6846C17.1831 13.5727 17.2413 13.4691 17.3207 13.3814C17.459 13.205 17.6554 13.0788 17.8779 13.023C18.459 12.8612 19.0572 12.7625 19.6613 12.7288C19.794 12.714 19.9284 12.7248 20.0567 12.7605C20.1851 12.7963 20.3046 12.8563 20.4085 12.937C20.5123 13.0177 20.5983 13.1176 20.6614 13.2306C20.7244 13.3436 20.7633 13.4677 20.7758 13.5953C20.95 14.2225 20.969 14.88 20.8315 15.5155C20.33 17.5694 18.6024 18.2754 16.663 17.6175C16.1187 17.4416 15.6413 17.1139 15.2921 16.6762C14.8264 16.149 14.4961 15.5243 14.328 14.8523C14.1918 14.2538 14.2067 13.6328 14.3716 13.041C14.5364 12.4493 14.8463 11.9039 15.2754 11.4505C15.6827 10.9577 16.2112 10.5699 16.8135 10.3219C17.1941 10.1206 17.6395 10.0633 18.0619 10.1615C18.1577 10.1869 18.2446 10.2365 18.3138 10.3051C18.3829 10.3737 18.4316 10.4588 18.4549 10.5515C18.4783 10.6443 18.4753 10.7414 18.4463 10.8327C18.4174 10.924 18.3635 11.0062 18.2903 11.0707C18.1512 11.1916 18 11.2991 17.8389 11.3917C17.3435 11.6945 16.9123 12.0847 16.5683 12.5416C16.3428 12.8373 16.1875 13.1768 16.1134 13.5363C16.0392 13.8957 16.048 14.2664 16.1392 14.6223C16.2656 15.1075 16.5461 15.543 16.9417 15.8685C18.1677 16.9383 19.7615 15.9059 19.4829 14.4458C19.0761 14.5421 18.7194 14.6437 18.3572 14.7292Z" fill="#3A3B7B"/>
<path d="M25.8472 17.746C24.036 18.8158 21.974 17.746 21.5226 15.4996C21.1938 13.895 21.818 11.6485 24.0026 10.7927C24.4674 10.6145 24.9715 10.552 25.4682 10.6108C26.065 10.7157 26.6125 10.9977 27.0334 11.417C27.4543 11.8364 27.7275 12.3719 27.8144 12.9482C28.1822 14.8577 27.3463 16.8956 25.8472 17.746ZM26.4769 14.1463C26.4764 13.702 26.3126 13.272 26.0144 12.9322C25.855 12.722 25.6245 12.5713 25.3623 12.506C25.1001 12.4406 24.8224 12.4646 24.5765 12.5738C23.5957 12.9803 22.9047 14.4565 23.1555 15.5424C23.1747 15.7127 23.2323 15.8771 23.3245 16.0238C23.4167 16.1706 23.5412 16.2963 23.6894 16.3921C23.8374 16.4878 24.0055 16.5514 24.1819 16.5783C24.3582 16.6052 24.5386 16.5948 24.7103 16.5479C25.2287 16.3741 25.6776 16.0492 25.9943 15.6187C26.3111 15.1881 26.4798 14.6734 26.4769 14.1463Z" fill="#3A3B7B"/>
<path d="M29.646 18.1953C29.6187 18.391 29.5115 18.5683 29.3479 18.6882C29.1843 18.8081 28.9779 18.8607 28.7739 18.8344C28.5699 18.8082 28.3852 18.7052 28.2603 18.5482C28.1354 18.3913 28.0806 18.1931 28.108 17.9974C28.1353 17.8016 28.2426 17.6243 28.4061 17.5044C28.5697 17.3845 28.7761 17.3319 28.9801 17.3582C29.1841 17.3844 29.3688 17.4873 29.4937 17.6443C29.6186 17.8013 29.6734 17.9995 29.646 18.1953ZM29.1612 10.9799C29.2672 10.8245 29.4227 10.7062 29.6045 10.6426C29.7863 10.5789 29.9846 10.5734 30.1699 10.6268C30.3583 10.6721 30.5247 10.7781 30.6414 10.927C30.7581 11.076 30.8179 11.259 30.8108 11.4452C30.7862 11.7439 30.7397 12.0406 30.6715 12.3331C30.4876 13.3226 30.3092 14.3121 30.1142 15.2909C30.025 15.6814 29.908 16.0558 29.7798 16.4516C29.7352 16.5753 29.6607 16.6871 29.5625 16.7778C29.5014 16.8461 29.4234 16.8985 29.3356 16.9301C29.2479 16.9617 29.1532 16.9716 29.0604 16.9588C28.9677 16.946 28.8797 16.9109 28.8048 16.8569C28.7299 16.8028 28.6704 16.7315 28.6318 16.6495C28.5656 16.5024 28.5296 16.3443 28.5259 16.1841C28.5259 15.5209 28.5259 14.8523 28.5705 14.1837C28.6463 13.2296 28.7953 12.282 29.0163 11.3489C29.0424 11.2239 29.0914 11.1043 29.1612 10.9959V10.9799Z" fill="#3A3B7B"/>
<path fill-rule="evenodd" clip-rule="evenodd" d="M4.16219 22.4933C4.09639 22.6343 4.07834 22.7915 4.1105 22.9427C4.13189 23.1421 4.17887 23.3383 4.25038 23.5266C4.33966 23.7573 4.43955 23.9854 4.56273 24.2665C4.59106 24.3312 4.62066 24.3988 4.65164 24.4698C4.81775 24.8507 5.02617 25.3375 5.30418 26.0419C5.38287 26.242 5.45275 26.4438 5.52311 26.6469C5.55154 26.729 5.58006 26.8114 5.60926 26.8939C5.71393 27.1873 5.89404 27.4509 6.13276 27.6599C6.23414 27.7747 6.3686 27.8584 6.51937 27.9002C6.67308 27.9429 6.83656 27.9402 6.98864 27.8925C7.14072 27.8447 7.27429 27.7541 7.37202 27.6325C7.46783 27.5133 7.5248 27.3696 7.53588 27.2195C7.59803 26.9271 7.57682 26.6239 7.47437 26.3419C7.31178 25.8739 7.12656 25.4051 6.91298 24.9466L6.912 24.9446C6.56063 24.2272 6.20348 23.5148 5.82942 22.8022L5.82662 22.7972C5.71712 22.6115 5.57481 22.4455 5.40609 22.3067C5.29656 22.1828 5.14548 22.0992 4.97863 22.0704C4.80823 22.041 4.63248 22.0706 4.48277 22.1541C4.34114 22.2317 4.22887 22.3505 4.16219 22.4933Z" fill="#3A3B7B"/>
<path fill-rule="evenodd" clip-rule="evenodd" d="M9.52871 20.727C8.97778 20.5901 8.40242 20.5701 7.8427 20.6686C7.40918 20.7095 6.98281 20.8055 6.68673 20.9956C6.53615 21.0924 6.4144 21.2166 6.34668 21.3745C6.27859 21.5333 6.26989 21.7149 6.3257 21.9172C6.42758 22.2878 6.55989 22.6481 6.69173 23.0073L6.71309 23.0655L6.71361 23.0667C7.11058 24.1102 7.51135 25.1501 7.91575 26.1864C7.96291 26.3497 8.0296 26.5073 8.11447 26.6559L8.11606 26.6586C8.22818 26.8432 8.37199 27.0083 8.54141 27.147C8.62614 27.2233 8.73092 27.276 8.84454 27.2996C8.95928 27.3234 9.07859 27.3165 9.1895 27.2796C9.30045 27.2428 9.39869 27.1774 9.47356 27.0906C9.54722 27.0052 9.59545 26.9024 9.61316 26.7929C9.68626 26.4955 9.66284 26.1838 9.546 25.8995C9.50955 25.8039 9.48094 25.7061 9.4508 25.6032C9.44075 25.5689 9.43056 25.534 9.41981 25.4984C10.3455 25.1511 11.3305 24.6841 11.6768 23.5978C11.8125 23.2224 11.8238 22.8158 11.7092 22.434C11.5945 22.0517 11.3592 21.7128 11.0357 21.4641C10.5954 21.1159 10.081 20.8643 9.52871 20.727ZM8.00161 22.0595C8.01983 22.0545 8.0382 22.0498 8.05662 22.0454C8.65928 21.9545 9.27587 22.0757 9.79286 22.3865C10.0207 22.5386 10.114 22.7076 10.1301 22.8702C10.1466 23.0376 10.0832 23.219 9.95578 23.3933C9.71505 23.7227 9.27573 23.9864 8.87889 24.0355C8.58959 23.3961 8.29581 22.7308 8.00161 22.0595Z" fill="#3A3B7B"/>
<path d="M13.2016 19.5565C13.8577 19.2657 14.6704 19.2155 15.3064 19.4199C15.4665 19.4647 15.6055 19.5616 15.6995 19.6939C15.7928 19.8254 15.8359 19.984 15.8215 20.1424C15.8206 20.2453 15.7943 20.3465 15.7448 20.4378C15.6944 20.5307 15.6215 20.6106 15.5321 20.6708C15.4427 20.731 15.3396 20.7696 15.2314 20.7835C15.1232 20.7973 15.0131 20.7859 14.9104 20.7503L14.9026 20.7476L14.8953 20.7439C14.8427 20.7175 14.7869 20.6976 14.7292 20.6847L14.7256 20.6839C14.2782 20.5699 13.8562 20.7588 13.7021 20.991C13.6286 21.1017 13.6195 21.2135 13.6807 21.3151C13.7463 21.424 13.9071 21.5462 14.2325 21.6332C14.322 21.6568 14.4137 21.6796 14.5068 21.7027C14.7641 21.7667 15.0316 21.8331 15.2901 21.9252L15.2911 21.9255C16.4841 22.3612 16.9283 23.2634 16.7763 24.1121C16.6258 24.9513 15.8956 25.7151 14.7974 25.8952C14.3978 25.9803 13.982 25.9637 13.591 25.8472C13.1991 25.7304 12.8458 25.5172 12.5663 25.2287L12.559 25.2212C12.4707 25.1125 12.4114 24.9848 12.3851 24.8493C12.3609 24.7271 12.3736 24.6007 12.4218 24.4852C12.4696 24.3703 12.5506 24.2709 12.655 24.1984C12.7654 24.1163 12.8984 24.067 13.0376 24.0568C13.1764 24.0465 13.3152 24.0755 13.4371 24.14C13.5588 24.1964 13.672 24.2684 13.7736 24.354L13.7755 24.3556C13.9552 24.5133 14.1727 24.5544 14.3812 24.5164C14.5928 24.4777 14.7917 24.3576 14.9197 24.1982C15.0468 24.0397 15.0979 23.8515 15.0373 23.6689C14.9764 23.4849 14.7931 23.2787 14.3905 23.1063C14.2852 23.0634 14.1761 23.0288 14.0626 22.9952C14.032 22.9861 14.0008 22.977 13.9693 22.9679C13.8854 22.9434 13.799 22.9182 13.7143 22.8905C13.656 22.8714 13.5982 22.8533 13.5409 22.8354C13.3842 22.7864 13.2316 22.7387 13.0846 22.6747C12.7648 22.5702 12.4885 22.3695 12.2968 22.1024C12.1044 21.8342 12.0075 21.5135 12.0207 21.1881C12.0217 20.3952 12.5421 19.8489 13.2016 19.5565Z" fill="#3A3B7B"/>
<path d="M21.5196 19.4721C21.3923 19.4125 21.2517 19.3842 21.1102 19.3897C20.9688 19.3953 20.831 19.4346 20.7093 19.5041C20.5884 19.5731 20.4872 19.6697 20.4147 19.7854C20.3482 19.8828 20.3021 19.9917 20.2792 20.1061C20.2562 20.2203 20.2568 20.3378 20.2808 20.4518C20.3045 20.5983 20.3307 20.7408 20.3567 20.8813C20.3996 21.1139 20.4414 21.3412 20.469 21.573L20.47 21.5788C20.5328 21.9423 20.5656 22.3099 20.5686 22.6783L20.5689 22.6836C20.5903 23.0814 20.4491 23.4715 20.1754 23.7711L20.1711 23.7764C20.082 23.8859 19.963 23.9695 19.8272 24.0178C19.6915 24.0661 19.5445 24.0772 19.4026 24.0499C19.2606 24.0225 19.1294 23.9579 19.0236 23.863C18.9178 23.7682 18.8415 23.6466 18.8034 23.5126C18.7221 23.2302 18.675 22.9396 18.663 22.6468L18.8019 20.5244C18.804 20.4967 18.8063 20.4683 18.8087 20.4395C18.814 20.3751 18.8194 20.3094 18.8217 20.2482C18.8249 20.1581 18.8221 20.0654 18.8003 19.9777C18.7779 19.888 18.7353 19.8028 18.6598 19.7301C18.585 19.6582 18.484 19.6052 18.357 19.5691C18.1273 19.5053 17.9331 19.5073 17.7712 19.5732C17.6093 19.6392 17.4983 19.7616 17.4198 19.903C17.3419 20.0432 17.2919 20.2091 17.254 20.3754C17.2259 20.4988 17.2033 20.6283 17.1819 20.7515C17.1745 20.794 17.1672 20.8357 17.1599 20.8762L17.1597 20.8774C17.0449 21.5535 17.0107 22.2399 17.0578 22.9234C17.0666 23.2927 17.1469 23.6573 17.2946 23.9985C17.4612 24.4387 17.763 24.8202 18.1601 25.0925C18.558 25.3653 19.0329 25.5156 19.5219 25.5236C20.0108 25.5315 20.4908 25.3967 20.8981 25.137C21.3048 24.8776 21.62 24.5059 21.802 24.071C22.0566 23.5171 22.1761 22.9146 22.1514 22.3096C22.1365 21.8679 22.1114 21.4228 22.0865 20.9799C22.0743 20.7627 22.0621 20.5459 22.0511 20.3305C22.0456 20.1144 21.9714 19.9052 21.8384 19.7308C21.7561 19.6206 21.6465 19.5317 21.5196 19.4721Z" fill="#3A3B7B"/>
<path d="M26.0222 22.8001C26.0093 22.8158 25.9957 22.8321 25.9815 22.849C25.878 22.2761 25.7821 21.7034 25.6861 21.1298C25.6516 20.924 25.617 20.7173 25.5822 20.5112L25.5782 20.4882L25.5655 20.4684C25.5415 20.431 25.5392 20.3943 25.5392 20.3161V20.3071L25.5377 20.2982C25.5117 20.1367 25.4356 19.9865 25.3194 19.8671C25.2035 19.748 25.053 19.6652 24.8874 19.6292C24.7221 19.5901 24.5484 19.5987 24.3881 19.654C24.2283 19.7092 24.0889 19.8084 23.9875 19.9392C23.9032 20.0395 23.8341 20.1508 23.7823 20.2697C23.6648 20.5259 23.5462 20.7827 23.4273 21.0402L23.4252 21.0447C23.1284 21.6876 22.8296 22.3347 22.5395 22.987L22.5386 22.9891C22.3605 23.4121 22.2134 23.8577 22.0669 24.302C22.0376 24.3907 22.0084 24.4793 21.9789 24.5677C21.926 24.7079 21.9029 24.8569 21.9108 25.0057C21.9012 25.139 21.9344 25.272 22.0061 25.3866C22.0792 25.5036 22.1887 25.5956 22.3191 25.6498C22.4574 25.708 22.6119 25.7203 22.7584 25.6849C22.9045 25.6495 23.0342 25.5686 23.1272 25.4548C23.2459 25.3147 23.348 25.1618 23.4313 24.9999C23.6771 24.5173 23.912 24.0289 24.1458 23.5426C24.2363 23.3545 24.3242 23.186 24.4242 23.0026C24.4311 23.0252 24.4381 23.0473 24.4453 23.0694C24.5501 23.5123 24.7271 23.9366 24.9696 24.3266C25.0155 24.4093 25.0794 24.4815 25.157 24.5383C25.2355 24.5959 25.3261 24.6362 25.4226 24.6567C25.519 24.6772 25.6189 24.6773 25.7154 24.657C25.8117 24.6367 25.9026 24.5963 25.9811 24.5391L26.1366 24.4273L27.3435 23.4517L27.2721 23.8882C27.1742 24.4882 27.077 25.0833 26.9737 25.6784C26.9061 25.9422 26.9062 26.2178 26.974 26.4815C27.0033 26.6299 27.0781 26.7665 27.1888 26.8739C27.3004 26.9823 27.4433 27.0558 27.599 27.0852C27.7547 27.1145 27.9161 27.0983 28.062 27.0385C28.2059 26.9796 28.3282 26.8812 28.4138 26.7557C28.6128 26.5188 28.7366 26.2319 28.7706 25.9292C28.8219 25.5018 28.8797 25.0686 28.9376 24.6355C29.0043 24.1363 29.071 23.6373 29.1273 23.1478L29.1275 23.1463C29.1817 22.6105 29.2079 22.0725 29.2061 21.5342C29.218 21.3641 29.1739 21.1946 29.0798 21.0498C28.9855 20.9044 28.8457 20.7914 28.6806 20.7268C28.5088 20.6518 28.3165 20.6318 28.1319 20.6697C27.9486 20.7073 27.7826 20.8001 27.6581 20.9344C27.4355 21.132 27.2267 21.3435 27.0329 21.5674L27.0316 21.5689C26.8202 21.8218 26.6101 22.0797 26.4014 22.3359C26.2746 22.4917 26.148 22.6471 26.0222 22.8001Z" fill="#3A3B7B"/>
</g>
<defs>
<clipPath id="clip0_211_2056">
<rect width="32.7153" height="20.186" fill="white" transform="translate(1.1604 7.74438)"/>
</clipPath>
</defs>
</svg>
