<svg width="39" height="35" viewBox="0 0 39 35" fill="none" xmlns="http://www.w3.org/2000/svg">
<g clip-path="url(#clip0_211_2080)">
<path d="M38.8873 14.4752C38.8913 14.4461 38.8913 14.4168 38.8873 14.3878C38.8911 14.3641 38.8911 14.34 38.8873 14.3163L38.6037 12.275C38.5628 12.0307 38.4534 11.8025 38.2877 11.6157L38.2391 11.5601L38.15 11.4727L33.2402 7.32654L33.3779 7.46158C33.2653 7.32941 33.1238 7.22369 32.964 7.15221C32.8041 7.08073 32.63 7.0453 32.4543 7.04855H30.9635C30.7211 7.04384 30.4843 7.1194 30.2911 7.26301C30.0882 7.12026 29.844 7.04509 29.5943 7.04855H28.1035C27.908 7.04544 27.7152 7.09301 27.5444 7.18646C27.3737 7.27991 27.2312 7.41592 27.1313 7.58072C26.9774 7.8161 26.9195 8.09969 26.9693 8.37501L27.1556 9.66175C27.0322 9.59315 26.8924 9.55755 26.7505 9.55851H19.5317C19.2727 9.5601 19.0196 9.63452 18.8025 9.77296C18.5925 9.90181 18.4239 10.0863 18.3164 10.3051L17.7573 9.8365C17.5373 9.63691 17.2469 9.52873 16.9471 9.53468H5.62061C5.36068 9.53932 5.10654 9.6105 4.88335 9.74119C4.578 9.9164 4.35423 10.2013 4.25948 10.5355L0.662212 22.3307C0.594998 22.525 0.588386 22.7346 0.643223 22.9327C0.69806 23.1307 0.811861 23.3083 0.97009 23.4427C1.01132 23.477 1.05461 23.5088 1.09972 23.538C1.09972 23.538 1.0268 23.4903 0.986285 23.4506L5.89609 27.6048C6.10379 27.7922 6.37534 27.897 6.65763 27.8986H18.0733C18.334 27.892 18.5884 27.818 18.8106 27.6842C18.9363 27.6168 19.0488 27.5281 19.1428 27.4221L19.1833 27.3665L19.2481 27.287L19.2967 27.1997L19.8315 27.6524C20.0362 27.8324 20.3018 27.9315 20.5768 27.9304H32.0168C32.2772 27.9219 32.5311 27.8481 32.7541 27.716C32.8769 27.6445 32.9888 27.5562 33.0863 27.4538L33.1267 27.3982L33.1916 27.3188C33.226 27.2686 33.2559 27.2154 33.2807 27.1599C33.3072 27.1118 33.3288 27.0613 33.3455 27.0091L36.6268 16.2385V16.1432C36.6308 16.1062 36.6308 16.0689 36.6268 16.032V15.9605C36.6307 15.9368 36.6307 15.9127 36.6268 15.889C36.6305 15.8388 36.6305 15.7883 36.6268 15.7381H37.6801C37.7717 15.7463 37.8639 15.7463 37.9555 15.7381H38.0285C38.0877 15.7207 38.1449 15.6967 38.1986 15.6666H38.2796L38.4254 15.5554L38.4903 15.5077L38.6037 15.3647V15.3171L38.6847 15.1821C38.6802 15.1558 38.6802 15.1289 38.6847 15.1027C38.6804 15.0898 38.6804 15.0758 38.6847 15.0629C38.7019 15.0164 38.7155 14.9685 38.7252 14.9199C38.7214 14.9043 38.7214 14.8879 38.7252 14.8723C38.7213 14.8486 38.7213 14.8245 38.7252 14.8008C38.7252 14.8008 38.8873 14.491 38.8873 14.4752Z" fill="black"/>
<path d="M17.2793 10.4402C17.3224 10.4783 17.3524 10.5285 17.3654 10.5839C17.3785 10.6392 17.3739 10.6972 17.3523 10.75L13.7631 22.5372C13.7179 22.6659 13.6255 22.7735 13.5039 22.8391C13.4049 22.904 13.2904 22.9423 13.1716 22.9503H1.76412C1.66669 22.9457 1.5744 22.9061 1.50485 22.8391C1.46348 22.8015 1.43444 22.7528 1.42145 22.6991C1.40846 22.6453 1.41212 22.589 1.43193 22.5372L5.0292 10.75C5.07065 10.6197 5.16021 10.5092 5.28036 10.4402C5.38095 10.38 5.49493 10.3445 5.61254 10.3369H17.0201C17.1167 10.3378 17.2094 10.3748 17.2793 10.4402ZM11.3244 20.1623L13.4714 13.1249H7.45981L5.32086 20.1623H11.3244ZM28.1684 10.5593C28.2073 10.6037 28.256 10.6388 28.3107 10.6622C28.3654 10.6856 28.4247 10.6966 28.4844 10.6944H29.967C30.0235 10.6949 30.0791 10.6813 30.1288 10.6549C30.1784 10.6285 30.2203 10.5902 30.2506 10.5434C30.2769 10.507 30.2955 10.4657 30.3053 10.422C30.315 10.3783 30.3157 10.3332 30.3073 10.2893L30.0156 8.19236C29.9879 8.09531 29.938 8.00569 29.8698 7.93024C29.8309 7.8859 29.7823 7.85073 29.7275 7.82735C29.6728 7.80398 29.6134 7.79299 29.5538 7.79521H28.0712C28.0147 7.79467 27.959 7.80825 27.9094 7.83465C27.8598 7.86106 27.8179 7.89942 27.7876 7.94613C27.7309 8.05733 27.7066 8.12881 27.7309 8.19236L28.0307 10.2893C28.046 10.3914 28.0943 10.486 28.1684 10.5593ZM32.8756 8.17647C32.8478 8.07942 32.798 7.9898 32.7298 7.91435C32.6925 7.87017 32.6453 7.83502 32.5919 7.8116C32.5385 7.78818 32.4804 7.77714 32.4219 7.77932H30.9311C30.8756 7.77777 30.8207 7.79098 30.7722 7.81755C30.7237 7.84412 30.6835 7.88306 30.6557 7.93024C30.6018 8.00071 30.5785 8.08922 30.5909 8.17647L30.8906 10.2734C30.9094 10.3744 30.9572 10.4681 31.0284 10.5434C31.068 10.5869 31.1168 10.6215 31.1713 10.6448C31.2259 10.6681 31.2848 10.6796 31.3443 10.6785H32.8351C32.8905 10.6792 32.9451 10.6656 32.9934 10.6391C33.0418 10.6127 33.0822 10.5742 33.1106 10.5276C33.1388 10.492 33.1585 10.4507 33.1683 10.4068C33.1781 10.3628 33.1778 10.3172 33.1673 10.2734L32.8756 8.17647ZM26.864 11.3536L26.7181 10.321H19.5317C19.4189 10.3271 19.3097 10.3628 19.2157 10.4243C19.156 10.4562 19.1041 10.5004 19.0635 10.5539C19.023 10.6074 18.9948 10.6689 18.9808 10.7341L18.3812 12.7039C18.3573 12.7531 18.3491 12.8084 18.3578 12.8622C18.3665 12.9161 18.3916 12.9661 18.4298 13.0058C18.4981 13.0687 18.5873 13.1054 18.681 13.109H27.4149L25.2679 20.1464H16.5583C16.446 20.1489 16.3366 20.1819 16.2423 20.2417C16.1277 20.3131 16.0441 20.4234 16.0074 20.5515L15.3997 22.5214C15.3799 22.5719 15.3747 22.6268 15.3847 22.6801C15.3947 22.7334 15.4195 22.7829 15.4564 22.8232C15.5226 22.8903 15.6125 22.9301 15.7076 22.9344H27.1475C27.2658 22.9244 27.3799 22.8862 27.4797 22.8232C27.5993 22.7573 27.6891 22.6495 27.7309 22.5214L31.0203 11.7508H27.3177C27.2589 11.7519 27.2006 11.7412 27.1463 11.7194C27.0919 11.6975 27.0427 11.6649 27.0017 11.6237C26.9347 11.5517 26.8874 11.4642 26.864 11.3695V11.3536Z" fill="white"/>
</g>
<defs>
<clipPath id="clip0_211_2080">
<rect width="38.2838" height="20.8821" fill="white" transform="translate(0.606445 7.04834)"/>
</clipPath>
</defs>
</svg>
