<svg width="34" height="35" viewBox="0 0 34 35" fill="none" xmlns="http://www.w3.org/2000/svg">
<g clip-path="url(#clip0_211_2072)">
<path d="M30.0803 9.02786C30.0803 9.35222 30.3465 9.61517 30.6749 9.61517H31.2694C31.5978 9.61517 31.864 9.35222 31.864 9.02786C31.864 8.7035 31.5978 8.44055 31.2694 8.44055H30.6749C30.3465 8.44055 30.0803 8.7035 30.0803 9.02786Z" fill="#212326"/>
<path d="M12.8381 27.2344H15.7264L14.8856 26.4038C14.6626 26.1836 14.3601 26.0598 14.0448 26.0598H12.8381C8.24101 26.0598 4.51431 22.3786 4.51431 17.8375C4.51431 13.2964 8.24101 9.61517 12.8381 9.61517H22.3511C26.9482 9.61517 30.6749 13.2964 30.6749 17.8375C30.6749 22.3786 26.9482 26.0598 22.3511 26.0598H18.7925C18.3194 26.0598 17.8657 25.8742 17.5312 25.5438L16.5462 24.5707C15.9886 24.02 15.2325 23.7106 14.444 23.7106H12.8381C9.55446 23.7106 6.89255 21.0811 6.89255 17.8375C6.89255 14.5939 9.55446 11.9644 12.8381 11.9644H22.3511C25.6348 11.9644 28.2967 14.5939 28.2967 17.8375C28.2967 21.0811 25.6348 23.7106 22.3511 23.7106H20.0661C19.5931 23.7106 19.1394 23.5249 18.8049 23.1945L17.8197 22.2214C17.2622 21.6707 16.5061 21.3613 15.7177 21.3613H12.8381C10.868 21.3613 9.27079 19.7836 9.27079 17.8375C9.27079 15.8913 10.868 14.3136 12.8381 14.3136H22.3511C24.3213 14.3136 25.9185 15.8913 25.9185 17.8375C25.9185 19.7599 24.36 21.3228 22.423 21.3606L22.4226 21.3613H21.5525C21.0795 21.3613 20.6258 21.1757 20.2913 20.8453L19.3061 19.8722C18.8487 19.4203 18.2575 19.1309 17.6245 19.0416L17.5946 19.0121H12.8381C12.1814 19.0121 11.649 18.4862 11.649 17.8375C11.649 17.1888 12.1814 16.6629 12.8381 16.6629H22.3511C23.0078 16.6629 23.5402 17.1888 23.5402 17.8375C23.5402 18.4862 23.0078 19.0121 22.3511 19.0121H19.9729L20.8137 19.8427C21.0367 20.063 21.3392 20.1867 21.6545 20.1867H22.3511C23.6645 20.1867 24.7293 19.1349 24.7293 17.8375C24.7293 16.5401 23.6645 15.4883 22.3511 15.4883H12.8381C11.5247 15.4883 10.4599 16.5401 10.4599 17.8375C10.4599 19.1349 11.5247 20.1867 12.8381 20.1867H17.2041C17.6771 20.1867 18.1308 20.3724 18.4653 20.7028L19.4505 21.6759C20.008 22.2266 20.7641 22.536 21.5525 22.536H22.6484V22.5269C25.1368 22.3754 27.1076 20.3337 27.1076 17.8375C27.1076 15.2426 24.978 13.139 22.3511 13.139H12.8381C10.2112 13.139 8.08167 15.2426 8.08167 17.8375C8.08167 20.4324 10.2112 22.536 12.8381 22.536H15.7177C16.1907 22.536 16.6444 22.7216 16.9789 23.052L17.9641 24.0251C18.5216 24.5758 19.2777 24.8852 20.0661 24.8852H22.3511C26.2915 24.8852 29.4858 21.7298 29.4858 17.8375C29.4858 13.9451 26.2915 10.7898 22.3511 10.7898H12.8381C8.89774 10.7898 5.70343 13.9451 5.70343 17.8375C5.70343 21.7298 8.89774 24.8852 12.8381 24.8852H14.444C14.9171 24.8852 15.3708 25.0708 15.7053 25.4012L16.6904 26.3743C17.2479 26.925 18.0041 27.2344 18.7925 27.2344H22.3511C27.605 27.2344 31.864 23.0273 31.864 17.8375C31.864 12.6477 27.605 8.44055 22.3511 8.44055L12.8381 8.44055C7.58429 8.44055 3.32519 12.6477 3.3252 17.8375C3.3252 23.0273 7.58429 27.2344 12.8381 27.2344Z" fill="#212326"/>
</g>
<defs>
<clipPath id="clip0_211_2072">
<rect width="28.5388" height="18.7939" fill="white" transform="translate(3.3252 8.44055)"/>
</clipPath>
</defs>
</svg>
