<svg width="34" height="35" viewBox="0 0 34 35" fill="none" xmlns="http://www.w3.org/2000/svg">
<g clip-path="url(#clip0_211_2049)">
<path fill-rule="evenodd" clip-rule="evenodd" d="M10.0458 10.6084L3.09497 17.4894C4.48526 18.8657 6.07345 20.0256 7.80502 20.9331C8.28364 22.1899 9.03386 23.3686 10.0557 24.3801C13.9 28.1857 20.1328 28.1857 23.9771 24.3801C24.9989 23.3686 25.7491 22.1899 26.2277 20.933C27.9593 20.0256 29.5475 18.8657 30.9377 17.4894L23.9926 10.614C23.9874 10.6089 23.9823 10.6038 23.9771 10.5986C20.1328 6.79297 13.9 6.79297 10.0557 10.5986C10.0524 10.6019 10.0491 10.6052 10.0458 10.6084ZM23.312 22.1745C21.2864 22.8512 19.16 23.1978 17.0164 23.1978C14.8727 23.1978 12.7464 22.8512 10.7208 22.1745C10.9403 22.4628 11.1826 22.7394 11.4478 23.0019C14.5232 26.0465 19.5095 26.0465 22.5849 23.0019C22.8501 22.7394 23.0925 22.4628 23.312 22.1745ZM11.5906 11.8389C12.1128 12.1805 12.6682 12.4728 13.2492 12.7111C14.4435 13.2008 15.7236 13.4529 17.0164 13.4529C18.3091 13.4529 19.5892 13.2008 20.7835 12.7111C21.3646 12.4728 21.9199 12.1805 22.4422 11.8389C19.4051 8.97819 14.6276 8.97819 11.5906 11.8389Z" fill="#3B4158"/>
</g>
<defs>
<clipPath id="clip0_211_2049">
<rect width="27.8428" height="19.4899" fill="white" transform="translate(3.09497 7.74438)"/>
</clipPath>
</defs>
</svg>
