<svg width="39" height="35" viewBox="0 0 39 35" fill="none" xmlns="http://www.w3.org/2000/svg">
<g clip-path="url(#clip0_211_2052)">
<path d="M38.5802 14.4752C38.5841 14.4461 38.5841 14.4168 38.5802 14.3878C38.5839 14.3641 38.5839 14.34 38.5802 14.3163L38.2965 12.275C38.2556 12.0307 38.1462 11.8025 37.9806 11.6157L37.9319 11.5601L37.8429 11.4727L32.9331 7.32654L33.0708 7.46158C32.9581 7.32941 32.8167 7.22369 32.6569 7.15221C32.497 7.08073 32.3228 7.0453 32.1472 7.04855H30.6564C30.414 7.04384 30.1771 7.1194 29.984 7.26301C29.7811 7.12026 29.5369 7.04509 29.2872 7.04855H27.7964C27.6009 7.04544 27.408 7.09301 27.2373 7.18646C27.0666 7.27991 26.9241 7.41592 26.8242 7.58072C26.6702 7.8161 26.6124 8.09969 26.6621 8.37501L26.8485 9.66175C26.725 9.59315 26.5853 9.55755 26.4434 9.55851H19.2246C18.9655 9.5601 18.7125 9.63452 18.4954 9.77296C18.2854 9.90181 18.1168 10.0863 18.0093 10.3051L17.4502 9.8365C17.2302 9.63691 16.9398 9.52873 16.64 9.53468H5.31348C5.05356 9.53932 4.79941 9.6105 4.57622 9.74119C4.27087 9.9164 4.0471 10.2013 3.95235 10.5355L0.355083 22.3307C0.287869 22.525 0.281257 22.7346 0.336094 22.9327C0.390931 23.1307 0.504733 23.3083 0.662961 23.4427C0.704191 23.477 0.747482 23.5088 0.792595 23.538C0.792595 23.538 0.719666 23.4903 0.679156 23.4506L5.58897 27.6048C5.79666 27.7922 6.06821 27.897 6.3505 27.8986H17.7662C18.0269 27.892 18.2812 27.818 18.5035 27.6842C18.6292 27.6168 18.7416 27.5281 18.8357 27.4221L18.8762 27.3665L18.941 27.287L18.9896 27.1997L19.5243 27.6524C19.729 27.8324 19.9947 27.9315 20.2697 27.9304H31.7097C31.9701 27.9219 32.2239 27.8481 32.4469 27.716C32.5698 27.6445 32.6816 27.5562 32.7792 27.4538L32.8196 27.3982L32.8844 27.3188C32.9189 27.2686 32.9488 27.2154 32.9735 27.1599C33 27.1118 33.0217 27.0613 33.0384 27.0091L36.3197 16.2385V16.1432C36.3237 16.1062 36.3237 16.0689 36.3197 16.032V15.9605C36.3236 15.9368 36.3236 15.9127 36.3197 15.889C36.3233 15.8388 36.3233 15.7883 36.3197 15.7381H37.3729C37.4646 15.7463 37.5568 15.7463 37.6484 15.7381H37.7213C37.7806 15.7207 37.8377 15.6967 37.8915 15.6666H37.9725L38.1183 15.5554L38.1831 15.5077L38.2965 15.3647V15.3171L38.3776 15.1821C38.3731 15.1558 38.3731 15.1289 38.3776 15.1027C38.3733 15.0898 38.3733 15.0758 38.3776 15.0629C38.3948 15.0164 38.4084 14.9685 38.4181 14.9199C38.4143 14.9043 38.4143 14.8879 38.4181 14.8723C38.4142 14.8486 38.4142 14.8245 38.4181 14.8008C38.4181 14.8008 38.5802 14.491 38.5802 14.4752Z" fill="black"/>
<path d="M16.9722 10.4402C17.0152 10.4783 17.0453 10.5285 17.0583 10.5839C17.0714 10.6392 17.0668 10.6972 17.0452 10.75L13.456 22.5372C13.4108 22.6659 13.3183 22.7735 13.1967 22.8391C13.0978 22.904 12.9833 22.9423 12.8645 22.9503H1.45699C1.35957 22.9457 1.26727 22.9061 1.19772 22.8391C1.15635 22.8015 1.12731 22.7528 1.11432 22.6991C1.10133 22.6453 1.10499 22.589 1.12481 22.5372L4.72208 10.75C4.76352 10.6197 4.85308 10.5092 4.97323 10.4402C5.07382 10.38 5.1878 10.3445 5.30542 10.3369H16.7129C16.8096 10.3378 16.9023 10.3748 16.9722 10.4402ZM11.0173 20.1623L13.1643 13.1249H7.15268L5.01374 20.1623H11.0173ZM27.8612 10.5593C27.9002 10.6037 27.9488 10.6388 28.0035 10.6622C28.0583 10.6856 28.1176 10.6966 28.1772 10.6944H29.6599C29.7164 10.6949 29.772 10.6813 29.8216 10.6549C29.8713 10.6285 29.9132 10.5902 29.9435 10.5434C29.9698 10.507 29.9884 10.4657 29.9981 10.422C30.0079 10.3783 30.0085 10.3332 30.0001 10.2893L29.7085 8.19236C29.6807 8.09531 29.6309 8.00569 29.5627 7.93024C29.5237 7.8859 29.4751 7.85073 29.4204 7.82735C29.3657 7.80398 29.3063 7.79299 29.2467 7.79521H27.764C27.7076 7.79467 27.6519 7.80825 27.6023 7.83465C27.5527 7.86106 27.5107 7.89942 27.4805 7.94613C27.4237 8.05733 27.3995 8.12881 27.4237 8.19236L27.7235 10.2893C27.7389 10.3914 27.7872 10.486 27.8612 10.5593ZM32.5685 8.17647C32.5407 8.07942 32.4908 7.9898 32.4227 7.91435C32.3854 7.87017 32.3382 7.83502 32.2848 7.8116C32.2314 7.78818 32.1732 7.77714 32.1148 7.77932H30.624C30.5685 7.77777 30.5136 7.79098 30.4651 7.81755C30.4166 7.84412 30.3763 7.88306 30.3486 7.93024C30.2947 8.00071 30.2713 8.08922 30.2838 8.17647L30.5835 10.2734C30.6023 10.3744 30.6501 10.4681 30.7213 10.5434C30.7609 10.5869 30.8096 10.6215 30.8642 10.6448C30.9187 10.6681 30.9777 10.6796 31.0372 10.6785H32.528C32.5834 10.6792 32.638 10.6656 32.6863 10.6391C32.7347 10.6127 32.7751 10.5742 32.8035 10.5276C32.8317 10.492 32.8513 10.4507 32.8612 10.4068C32.871 10.3628 32.8706 10.3172 32.8602 10.2734L32.5685 8.17647ZM26.5568 11.3536L26.411 10.321H19.2246C19.1117 10.3271 19.0026 10.3628 18.9086 10.4243C18.8489 10.4562 18.797 10.5004 18.7564 10.5539C18.7159 10.6074 18.6876 10.6689 18.6737 10.7341L18.0741 12.7039C18.0502 12.7531 18.042 12.8084 18.0506 12.8622C18.0594 12.9161 18.0845 12.9661 18.1227 13.0058C18.191 13.0687 18.2802 13.1054 18.3739 13.109H27.1078L24.9608 20.1464H16.2511C16.1388 20.1489 16.0295 20.1819 15.9352 20.2417C15.8206 20.3131 15.7369 20.4234 15.7002 20.5515L15.0926 22.5214C15.0728 22.5719 15.0675 22.6268 15.0775 22.6801C15.0876 22.7334 15.1124 22.7829 15.1493 22.8232C15.2155 22.8903 15.3053 22.9301 15.4004 22.9344H26.8404C26.9587 22.9244 27.0728 22.8862 27.1726 22.8232C27.2922 22.7573 27.382 22.6495 27.4237 22.5214L30.7131 11.7508H27.0106C26.9518 11.7519 26.8935 11.7412 26.8391 11.7194C26.7848 11.6975 26.7356 11.6649 26.6946 11.6237C26.6276 11.5517 26.5802 11.4642 26.5568 11.3695V11.3536Z" fill="white"/>
</g>
<defs>
<clipPath id="clip0_211_2052">
<rect width="38.2838" height="20.8821" fill="white" transform="translate(0.299316 7.04834)"/>
</clipPath>
</defs>
</svg>
