<svg width="34" height="35" viewBox="0 0 34 35" fill="none" xmlns="http://www.w3.org/2000/svg">
<g clip-path="url(#clip0_211_2046)">
<path fill-rule="evenodd" clip-rule="evenodd" d="M9.97901 3.67468C13.8233 3.67468 16.9397 6.79109 16.9397 10.6354V3.67468H23.9004C27.7446 3.67468 30.8611 6.79109 30.8611 10.6354C30.8611 14.4796 27.7446 17.5961 23.9004 17.5961C27.7446 17.5961 30.8611 20.7125 30.8611 24.5568C30.8611 26.4656 30.0927 28.195 28.8484 29.4525L28.8224 29.4787L28.7993 29.5017C27.5415 30.7478 25.8108 31.5175 23.9004 31.5175C22.003 31.5175 20.2829 30.7583 19.0272 29.5271C19.0109 29.511 18.9946 29.4949 18.9784 29.4787C18.9632 29.4635 18.948 29.4482 18.9329 29.4328C17.7001 28.177 16.9397 26.4556 16.9397 24.5568C16.9397 28.401 13.8233 31.5175 9.97901 31.5175C6.13472 31.5175 3.01831 28.401 3.01831 24.5568V17.5961H9.97901C6.13472 17.5961 3.01831 14.4796 3.01831 10.6354C3.01831 6.79109 6.13472 3.67468 9.97901 3.67468ZM15.5476 10.6354C15.5476 13.7108 13.0544 16.2039 9.97901 16.2039V5.06682C13.0544 5.06682 15.5476 7.55995 15.5476 10.6354ZM29.469 24.5568C29.469 21.4813 26.9758 18.9882 23.9004 18.9882C20.825 18.9882 18.3318 21.4813 18.3318 24.5568H29.469ZM4.41045 18.9882V24.5568C4.41045 27.6322 6.90358 30.1253 9.97901 30.1253C13.0544 30.1253 15.5476 27.6322 15.5476 24.5568V18.9882H4.41045ZM18.3318 16.2039V5.06682H23.9004C26.9758 5.06682 29.469 7.55995 29.469 10.6354C29.469 13.7108 26.9758 16.2039 23.9004 16.2039H18.3318Z" fill="#263238"/>
</g>
<defs>
<clipPath id="clip0_211_2046">
<rect width="27.8428" height="27.8428" fill="white" transform="translate(3.01831 3.67468)"/>
</clipPath>
</defs>
</svg>
