<svg width="37" height="35" viewBox="0 0 37 35" fill="none" xmlns="http://www.w3.org/2000/svg">
<g clip-path="url(#clip0_211_2076)">
<path d="M8.81726 10.5287C7.40373 10.5287 6.04811 11.0902 5.0486 12.0897L1.78662 15.3517C0.787105 16.3512 0.225586 17.7068 0.225586 19.1204C0.225586 22.0639 2.61178 24.4501 5.5553 24.4501C6.96883 24.4501 8.32445 23.8885 9.32396 22.889L11.5803 20.6327C11.5803 20.6326 11.5803 20.6327 11.5803 20.6327L18.1545 14.0585C18.6318 13.5811 19.2793 13.313 19.9544 13.313C21.0846 13.313 22.0428 14.0496 22.375 15.0689L24.4498 12.9941C23.5033 11.5117 21.8436 10.5287 19.9544 10.5287C18.5408 10.5287 17.1852 11.0902 16.1857 12.0897L7.35519 20.9203C6.87783 21.3976 6.23039 21.6658 5.5553 21.6658C4.14949 21.6658 3.00986 20.5262 3.00986 19.1204C3.00986 18.4453 3.27804 17.7978 3.7554 17.3205L7.01737 14.0585C7.49473 13.5811 8.14217 13.313 8.81726 13.313C9.94754 13.313 10.9057 14.0496 11.2379 15.069L13.3128 12.9942C12.3662 11.5117 10.7066 10.5287 8.81726 10.5287Z" fill="#394149"/>
<path d="M18.4924 20.9203C18.0151 21.3976 17.3676 21.6658 16.6925 21.6658C15.5624 21.6658 14.6043 20.9294 14.272 19.9102L12.1973 21.9849C13.1438 23.4672 14.8034 24.4501 16.6925 24.4501C18.1061 24.4501 19.4617 23.8885 20.4612 22.889L29.2917 14.0585C29.7691 13.5811 30.4165 13.313 31.0916 13.313C32.4974 13.313 33.637 14.4526 33.637 15.8584C33.637 16.5335 33.3689 17.1809 32.8915 17.6583L29.6295 20.9203C29.1522 21.3976 28.5047 21.6658 27.8296 21.6658C26.6995 21.6658 25.7413 20.9292 25.409 19.9099L23.3343 21.9847C24.2808 23.4671 25.9404 24.4501 27.8296 24.4501C29.2432 24.4501 30.5988 23.8885 31.5983 22.889L34.8603 19.6271C35.8598 18.6275 36.4213 17.2719 36.4213 15.8584C36.4213 12.9149 34.0351 10.5287 31.0916 10.5287C29.6781 10.5287 28.3225 11.0902 27.3229 12.0897L18.4924 20.9203Z" fill="#394149"/>
</g>
<defs>
<clipPath id="clip0_211_2076">
<rect width="36.1956" height="13.9214" fill="white" transform="translate(0.225586 10.5287)"/>
</clipPath>
</defs>
</svg>
