<svg width="46" height="40" viewBox="0 0 46 40" fill="none" xmlns="http://www.w3.org/2000/svg">
<path d="M45.6658 26.624C45.6658 33.5437 40.0562 39.1532 33.1365 39.1532L14.3426 39.1532C12.4205 39.1532 10.8623 37.595 10.8623 35.6728L10.8623 12.0065C10.8623 8.1622 13.9787 5.04579 17.823 5.04579L42.1854 5.0458C44.1076 5.0458 45.6658 6.604 45.6658 8.52614L45.6658 26.624Z" fill="#E8F5E9"/>
<path d="M20.128 16.6316C19.9604 16.6316 19.8048 16.5855 19.6666 16.5114V16.5134C19.6666 16.7771 19.5641 17.0247 19.3781 17.2102C19.1921 17.3962 18.9447 17.4987 18.6813 17.4987C18.5112 17.4987 18.3536 17.4514 18.2139 17.3753C18.1998 17.6166 18.1034 17.8421 17.9313 18.0143C17.7454 18.2002 17.4979 18.3027 17.2343 18.3027C16.7107 18.3027 16.2855 17.8911 16.2548 17.3752C16.0928 17.4628 15.9096 17.5087 15.7207 17.4965C15.2056 17.4628 14.8022 17.0177 14.8022 16.483V12.0514L14.2975 12.9257C14.1053 13.26 13.7456 13.4676 13.3582 13.4676C13.1694 13.4676 12.983 13.4181 12.8178 13.3235C12.6122 13.2043 12.4651 13.0129 12.4039 12.7839C12.3424 12.5548 12.3742 12.3152 12.4931 12.1099C12.4933 12.1099 14.1442 9.25102 14.2449 9.07541C14.2569 9.04901 14.291 8.97242 14.32 8.90715C14.3477 8.84484 14.3715 8.78088 14.3943 8.71659C14.8922 7.31103 16.1249 6.43793 17.6117 6.43793C19.5424 6.43793 21.1131 8.14114 21.1131 10.2347L21.1132 15.6462C21.1132 15.9096 21.0109 16.157 20.8251 16.3432C20.6391 16.5292 20.3917 16.6316 20.128 16.6316L20.128 16.6316ZM17.6117 6.96147C16.3342 6.96147 15.316 7.68306 14.8878 8.89168C14.8604 8.96843 14.8319 9.04518 14.7986 9.11996C14.702 9.3366 14.702 9.3366 14.6748 9.36775L14.6712 9.36464C14.5364 9.61899 14.1359 10.3125 12.9464 12.3719C12.8976 12.4564 12.8846 12.5545 12.9095 12.6483C12.9348 12.7421 12.9953 12.8211 13.0791 12.8695C13.3392 13.0189 13.6954 12.9225 13.8436 12.6642L14.8373 10.9439C14.8966 10.8414 15.0167 10.791 15.1318 10.8222C15.2463 10.8529 15.3258 10.9567 15.3258 11.0751V16.4832C15.3258 16.7384 15.5183 16.9586 15.755 16.9742C15.8914 16.9814 16.0187 16.9356 16.1143 16.8402C16.2012 16.7533 16.2491 16.6375 16.2491 16.5137V12.9767C16.2491 12.8321 16.3664 12.7148 16.511 12.7148C16.6556 12.7148 16.7729 12.8319 16.7729 12.9767L16.7727 17.3176C16.7727 17.5722 16.9799 17.7793 17.2344 17.7793C17.358 17.7793 17.4741 17.7314 17.5612 17.6445C17.6481 17.5574 17.696 17.4413 17.696 17.3176V12.9767C17.696 12.8321 17.8131 12.7148 17.9579 12.7148C18.1025 12.7148 18.2198 12.8319 18.2198 12.9767L18.2196 16.473V16.5137C18.2196 16.768 18.4268 16.9751 18.6814 16.9751C18.8049 16.9751 18.9207 16.9271 19.0083 16.8398C19.0952 16.7531 19.1431 16.6373 19.1431 16.5135V12.9765C19.1431 12.8319 19.2602 12.7146 19.405 12.7146C19.5496 12.7146 19.6669 12.8317 19.6669 12.9765L19.6665 15.6463C19.6665 15.901 19.8737 16.1081 20.128 16.1081C20.2518 16.1081 20.3676 16.0601 20.4545 15.9733C20.5418 15.8861 20.5895 15.77 20.5895 15.6463L20.5896 10.2348C20.5896 8.43011 19.2538 6.96153 17.6117 6.96153L17.6117 6.96147Z" fill="#103E13"/>
<path d="M9.83834 20.3928L13.6387 18.113C14.0969 17.8378 14.6864 17.9547 14.9803 18.3793C15.0876 18.5339 15.1423 18.7142 15.1509 18.8977C15.2925 18.8237 15.4467 18.7835 15.6036 18.7835C15.684 18.7835 15.7647 18.7935 15.8444 18.8134C16.0997 18.8772 16.3149 19.0367 16.4502 19.2624C16.5856 19.4884 16.6252 19.7532 16.5614 20.0082C16.5025 20.2442 16.359 20.4428 16.1594 20.5791C16.299 20.6614 16.4193 20.7738 16.505 20.9168C16.6404 21.1427 16.6799 21.4075 16.6163 21.6628C16.5525 21.9178 16.3929 22.1329 16.167 22.2686L16.1657 22.2694C16.3028 22.3516 16.421 22.4628 16.5056 22.6036C16.6412 22.8296 16.6808 23.0944 16.617 23.3498C16.553 23.6049 16.3934 23.8201 16.1678 23.9556L11.5275 26.7394C10.6615 27.2587 9.66028 27.438 8.7088 27.2437C7.7488 27.0475 6.95374 26.4957 6.47032 25.6898C5.70528 24.4148 5.81993 22.9083 6.76895 21.7586C6.81241 21.7061 6.85521 21.6526 6.89408 21.5972C6.93524 21.5387 6.98329 21.4698 6.99969 21.4462C7.09792 21.2707 8.7008 18.3828 8.70063 18.3831C8.86249 18.091 9.16588 17.9257 9.47877 17.9259C9.62472 17.9259 9.77281 17.9618 9.90942 18.0376C10.0744 18.1297 10.213 18.264 10.3099 18.4259C10.5091 18.758 10.5162 19.1736 10.3286 19.5099L9.83834 20.3928ZM9.86114 18.6951C9.8103 18.6103 9.74044 18.5428 9.655 18.4949C9.47838 18.3971 9.25601 18.4608 9.15877 18.6367C8.01182 20.7031 7.62084 21.4072 7.46996 21.6578L7.4734 21.6586C7.46077 21.7006 7.46077 21.7006 7.32269 21.8979C7.27579 21.9646 7.22479 22.0288 7.17281 22.0919C6.35676 23.0806 6.262 24.3248 6.91911 25.4204C7.32614 26.099 7.99884 26.5643 8.81338 26.7306C9.63678 26.898 10.5046 26.7422 11.2579 26.2903L15.8986 23.5064C16.0045 23.4429 16.0793 23.342 16.1091 23.2225C16.139 23.1031 16.1205 22.979 16.0568 22.873C15.926 22.6549 15.6418 22.5833 15.4236 22.7146L13.1343 24.0881C13.0103 24.1625 12.8493 24.1225 12.775 23.9983C12.7006 23.8744 12.7407 23.7135 12.8647 23.639L15.1542 22.2656L15.8978 21.8195C16.0037 21.7559 16.0786 21.6551 16.1085 21.5358C16.1383 21.4163 16.1198 21.292 16.0562 21.1862C15.9251 20.9679 15.6409 20.8969 15.423 21.0278L12.39 22.8473C12.2657 22.9219 12.1051 22.8816 12.0307 22.7576C11.9562 22.6336 11.9965 22.4727 12.1204 22.3983L15.8428 20.1652C15.9488 20.1016 16.0235 20.0009 16.0534 19.8813C16.0832 19.762 16.0647 19.6378 16.0012 19.5319C15.9378 19.4261 15.8369 19.3513 15.7174 19.3215C15.5972 19.2916 15.4735 19.3102 15.3679 19.3735L14.6788 19.7869C14.6786 19.7869 14.6786 19.787 14.6785 19.787H14.6783L11.6454 21.6066C11.5211 21.6813 11.3604 21.641 11.2861 21.5168C11.2117 21.3929 11.252 21.232 11.3758 21.1575L14.4089 19.338C14.5148 19.2744 14.5898 19.1736 14.6196 19.0543C14.6524 18.9235 14.6275 18.7896 14.5497 18.6775C14.4149 18.4825 14.1266 18.4307 13.908 18.562L9.27071 21.344C9.16919 21.4047 9.03915 21.3899 8.95404 21.3078C8.86876 21.2254 8.84957 21.096 8.90697 20.9926L9.87126 19.2552C9.96801 19.0816 9.96424 18.8671 9.86109 18.6952L9.86114 18.6951Z" fill="#103E13"/>
<path d="M27.998 25.6897C27.5147 26.4957 26.7199 27.0474 25.7597 27.2435C24.8081 27.4376 23.8072 27.2586 22.941 26.7393L18.3003 23.9553C18.0745 23.8199 17.9148 23.6047 17.8508 23.3492C17.7873 23.0942 17.827 22.8293 17.9623 22.6037C18.0468 22.4627 18.1652 22.3515 18.3024 22.2693L18.3011 22.2685C18.0753 22.133 17.9156 21.9179 17.852 21.6627C17.788 21.4075 17.8277 21.1425 17.9631 20.9165C18.0504 20.7714 18.1699 20.6579 18.3064 20.5774C18.1083 20.4411 17.9656 20.2432 17.9069 20.0083C17.8429 19.753 17.8826 19.4881 18.0181 19.2625C18.1534 19.0367 18.3687 18.8771 18.6239 18.8133C18.7036 18.7933 18.7844 18.7835 18.8645 18.7835C19.0216 18.7836 19.1757 18.8235 19.3174 18.8976C19.3261 18.7141 19.3807 18.5339 19.488 18.3792C19.782 17.955 20.371 17.8376 20.8299 18.1129L24.6301 20.3924L24.1403 19.5101C23.9523 19.1733 23.9592 18.7577 24.1585 18.4254C24.2556 18.2638 24.3943 18.1294 24.5601 18.0365C24.6964 17.961 24.844 17.9253 24.9896 17.9253C25.3023 17.9254 25.606 18.0904 25.7677 18.3825C26.3312 19.3978 27.3945 21.3126 27.4693 21.4462C27.4852 21.4694 27.5332 21.5382 27.5744 21.5968C27.6136 21.6524 27.6559 21.7055 27.6997 21.7583C28.6486 22.9085 28.763 24.4148 27.998 25.6897L27.998 25.6897ZM27.2957 22.0921C27.2435 22.0289 27.1924 21.9645 27.1458 21.8981C27.0041 21.697 27.0005 21.6917 26.9898 21.6391C26.8242 21.3651 26.4201 20.6376 25.3094 18.6365C25.212 18.4609 24.9906 18.3968 24.8143 18.4942C24.7276 18.5427 24.6579 18.6105 24.607 18.6953C24.504 18.867 24.5001 19.0815 24.5974 19.2556L25.5613 20.9925C25.6189 21.0961 25.5997 21.2253 25.5146 21.3077C25.4296 21.3902 25.2997 21.4046 25.1977 21.3439L20.5604 18.5619C20.3418 18.4309 20.0537 18.4822 19.9185 18.6774C19.8408 18.7895 19.816 18.9234 19.8485 19.0541C19.8784 19.1735 19.9533 19.2741 20.0594 19.3378C20.0597 19.3379 20.0599 19.3383 20.0602 19.3384L23.0923 21.1574C23.2163 21.2319 23.2564 21.3926 23.182 21.5167C23.1075 21.6406 22.947 21.6811 22.8227 21.6064L19.1002 19.3734C18.9946 19.3101 18.8703 19.2914 18.7509 19.3214C18.6312 19.3512 18.5305 19.426 18.467 19.5321C18.4034 19.6379 18.385 19.762 18.4146 19.8814C18.4444 20.0008 18.5194 20.1017 18.6253 20.1653L19.3497 20.5997L22.3476 22.3984C22.4716 22.4729 22.5118 22.6336 22.4373 22.7577C22.3628 22.8815 22.2023 22.9219 22.078 22.8474L19.0453 21.0279C18.8272 20.8967 18.5431 20.9679 18.4119 21.1863C18.3483 21.2923 18.33 21.4164 18.3595 21.5358C18.3893 21.6552 18.4643 21.7559 18.5704 21.8197L19.3139 22.2657L21.6031 23.6392C21.727 23.7136 21.7672 23.8743 21.6928 23.9985C21.6183 24.1223 21.4578 24.163 21.3335 24.0882L19.0443 22.7147C18.9387 22.6514 18.8149 22.6327 18.6948 22.6627C18.5754 22.6926 18.4744 22.7674 18.411 22.8731C18.3475 22.9791 18.329 23.1034 18.3585 23.2226C18.3883 23.342 18.4633 23.4427 18.5694 23.5065L23.2101 26.2904C23.9632 26.7422 24.8316 26.8986 25.6546 26.7307C26.4689 26.5644 27.1417 26.0992 27.5487 25.4206C28.2064 24.3248 28.1118 23.0804 27.296 22.092L27.2957 22.0921Z" fill="#103E13"/>
</svg>
