<svg width="47" height="40" viewBox="0 0 47 40" fill="none" xmlns="http://www.w3.org/2000/svg">
<path d="M46.23 27.4083C46.23 34.328 40.6204 39.9375 33.7007 39.9375L14.9069 39.9375C12.9847 39.9375 11.4265 38.3793 11.4265 36.4571L11.4265 12.7908C11.4265 8.9465 14.5429 5.83009 18.3872 5.83009L42.7496 5.8301C44.6718 5.8301 46.23 7.3883 46.23 9.31044L46.23 27.4083Z" fill="#E8F5E9"/>
<path d="M19.7211 14.1905C19.504 14.1905 19.3274 14.0142 19.3274 13.7968V13.1276C19.3274 12.9104 19.5037 12.7339 19.7211 12.7339C19.9383 12.7339 20.1149 12.9102 20.1149 13.1276V13.7968C20.1149 14.0142 19.9383 14.1905 19.7211 14.1905Z" fill="#103E13"/>
<path d="M18.0656 14.1905C17.8484 14.1905 17.6719 14.0142 17.6719 13.7968V13.1276C17.6719 12.9104 17.8482 12.7339 18.0656 12.7339C18.2828 12.7339 18.4594 12.9102 18.4594 13.1276V13.7968C18.4591 14.0142 18.2831 14.1905 18.0656 14.1905Z" fill="#103E13"/>
<path d="M16.4104 14.1905C16.1932 14.1905 16.0166 14.0142 16.0166 13.7968V13.1276C16.0166 12.9104 16.1929 12.7339 16.4104 12.7339C16.6275 12.7339 16.8041 12.9102 16.8041 13.1276V13.7968C16.8041 14.0142 16.6278 14.1905 16.4104 14.1905Z" fill="#103E13"/>
<path d="M19.7211 16.9269C19.504 16.9269 19.3274 16.7507 19.3274 16.5332V15.8643C19.3274 15.6471 19.5037 15.4706 19.7211 15.4706C19.9383 15.4706 20.1149 15.6469 20.1149 15.8643V16.5332C20.1149 16.7507 19.9383 16.9269 19.7211 16.9269Z" fill="#103E13"/>
<path d="M18.0656 16.9269C17.8484 16.9269 17.6719 16.7507 17.6719 16.5332V15.8643C17.6719 15.6471 17.8482 15.4706 18.0656 15.4706C18.2828 15.4706 18.4594 15.6469 18.4594 15.8643V16.5332C18.4591 16.7507 18.2831 16.9269 18.0656 16.9269Z" fill="#103E13"/>
<path d="M16.4104 16.9269C16.1932 16.9269 16.0166 16.7507 16.0166 16.5332V15.8643C16.0166 15.6471 16.1929 15.4706 16.4104 15.4706C16.6275 15.4706 16.8041 15.6469 16.8041 15.8643V16.5332C16.8041 16.7507 16.6278 16.9269 16.4104 16.9269Z" fill="#103E13"/>
<path d="M19.7211 19.6633C19.504 19.6633 19.3274 19.487 19.3274 19.2696V18.6004C19.3274 18.3832 19.5037 18.2067 19.7211 18.2067C19.9383 18.2067 20.1149 18.3829 20.1149 18.6004V19.2696C20.1149 19.487 19.9383 19.6633 19.7211 19.6633Z" fill="#103E13"/>
<path d="M18.0656 19.6633C17.8484 19.6633 17.6719 19.487 17.6719 19.2696V18.6004C17.6719 18.3832 17.8482 18.2067 18.0656 18.2067C18.2828 18.2067 18.4594 18.3829 18.4594 18.6004V19.2696C18.4591 19.487 18.2831 19.6633 18.0656 19.6633Z" fill="#103E13"/>
<path d="M16.4104 19.6633C16.1932 19.6633 16.0166 19.487 16.0166 19.2696V18.6004C16.0166 18.3832 16.1929 18.2067 16.4104 18.2067C16.6275 18.2067 16.8041 18.3829 16.8041 18.6004V19.2696C16.8041 19.487 16.6278 19.6633 16.4104 19.6633Z" fill="#103E13"/>
<path d="M19.7211 22.3991C19.504 22.3991 19.3274 22.2229 19.3274 22.0054V21.3363C19.3274 21.1191 19.5037 20.9425 19.7211 20.9425C19.9383 20.9425 20.1149 21.1188 20.1149 21.3363V22.0054C20.1149 22.2229 19.9383 22.3991 19.7211 22.3991Z" fill="#103E13"/>
<path d="M18.0656 22.3991C17.8484 22.3991 17.6719 22.2229 17.6719 22.0054V21.3363C17.6719 21.1191 17.8482 20.9425 18.0656 20.9425C18.2828 20.9425 18.4594 21.1188 18.4594 21.3363V22.0054C18.4591 22.2229 18.2831 22.3991 18.0656 22.3991Z" fill="#103E13"/>
<path d="M16.4104 22.3991C16.1932 22.3991 16.0166 22.2229 16.0166 22.0054V21.3363C16.0166 21.1191 16.1929 20.9425 16.4104 20.9425C16.6275 20.9425 16.8041 21.1188 16.8041 21.3363V22.0054C16.8041 22.2229 16.6278 22.3991 16.4104 22.3991Z" fill="#103E13"/>
<path d="M19.7211 25.1356C19.504 25.1356 19.3274 24.9593 19.3274 24.7418V24.0729C19.3274 23.8558 19.5037 23.6792 19.7211 23.6792C19.9383 23.6792 20.1149 23.8555 20.1149 24.0729V24.7418C20.1149 24.959 19.9383 25.1356 19.7211 25.1356Z" fill="#103E13"/>
<path d="M18.0656 25.1356C17.8484 25.1356 17.6719 24.9593 17.6719 24.7418V24.0729C17.6719 23.8558 17.8482 23.6792 18.0656 23.6792C18.2828 23.6792 18.4594 23.8555 18.4594 24.0729V24.7418C18.4591 24.959 18.2831 25.1356 18.0656 25.1356Z" fill="#103E13"/>
<path d="M16.4104 25.1356C16.1932 25.1356 16.0166 24.9593 16.0166 24.7418L16.0169 24.0729C16.0169 23.8558 16.1932 23.6792 16.4106 23.6792C16.6278 23.6792 16.8044 23.8555 16.8044 24.0729V24.7418C16.8041 24.959 16.6278 25.1356 16.4104 25.1356Z" fill="#103E13"/>
<path d="M5.1622 27.8588C5.1622 28.0759 5.33847 28.2525 5.55594 28.2525H29.534C29.7512 28.2525 29.9277 28.0762 29.9277 27.8588C29.9277 27.6416 29.7514 27.465 29.534 27.465H28.8061V16.1599C28.8061 15.9428 28.6298 15.7662 28.4124 15.7662L21.9837 15.7665V7.6161C21.9837 7.47826 21.9117 7.35086 21.7942 7.27946C21.6769 7.2078 21.5303 7.20341 21.4084 7.26683L14.0994 11.0722C13.969 11.1401 13.8877 11.2746 13.8877 11.4215V18.5407H6.81425C6.59706 18.5407 6.4205 18.717 6.4205 18.9344V27.4651H5.55507C5.33788 27.4648 5.16187 27.6411 5.16187 27.8585L5.1622 27.8588ZM21.9838 21.7299H28.019V27.4653L21.9838 27.4651V21.7299ZM21.9838 18.9937H28.019V20.9427L21.9838 20.9424V18.9937ZM21.9838 16.5535H28.019V18.2068H21.9838V16.5535ZM14.6748 11.6606L21.196 8.26513V27.4647H14.6748V11.6606ZM9.15443 24.3202C9.15443 23.503 9.80189 22.838 10.5979 22.838C11.3939 22.838 12.0416 23.5028 12.0416 24.3202V27.4652H9.15443V24.3202ZM7.20798 19.328H13.8876V27.4651H12.8291V24.32C12.8291 23.0688 11.8286 22.0507 10.5979 22.0507C9.36777 22.0507 8.36723 23.0685 8.36723 24.32V27.4651H7.20798V19.328Z" fill="#103E13"/>
</svg>
