<svg width="46" height="40" viewBox="0 0 46 40" fill="none" xmlns="http://www.w3.org/2000/svg">
<path d="M45.3562 27.1724C45.3562 34.0921 39.7467 39.7017 32.8269 39.7017L14.0331 39.7017C12.1109 39.7017 10.5527 38.1435 10.5527 36.2213L10.5527 12.5549C10.5527 8.71066 13.6691 5.59425 17.5134 5.59425L41.8759 5.59426C43.798 5.59426 45.3562 7.15246 45.3562 9.0746L45.3562 27.1724Z" fill="#C8E6C9"/>
<path d="M16.8103 7.6825C14.3244 7.6825 12.3007 9.72468 12.3007 12.2211C12.3007 13.8004 13.1117 15.1948 14.3363 16.0076C12.8572 16.5021 11.5774 17.4264 10.6388 18.6356C10.1198 18.2364 9.53992 17.9154 8.91479 17.6854C9.86275 16.9816 10.4822 15.8511 10.4822 14.5805C10.4822 12.4633 8.76983 10.73 6.66539 10.73C4.56096 10.73 2.84857 12.4633 2.84857 14.5805C2.84857 15.8518 3.46856 16.9829 4.41731 17.6866C1.90549 18.6135 0.111572 21.0402 0.111572 23.8962V25.9024C0.111829 26.0554 0.173005 26.2019 0.281475 26.3096C0.389944 26.4175 0.536717 26.4777 0.689656 26.4772H9.49143C9.51276 26.4795 9.5341 26.4808 9.55543 26.4805H24.0656C24.0869 26.4808 24.1085 26.4795 24.1296 26.4772H32.932C33.2484 26.4759 33.5047 26.2191 33.5055 25.9024V23.8962C33.5055 21.0402 31.7147 18.6135 29.2042 17.6864C30.1529 16.9829 30.7729 15.8516 30.7729 14.5803C30.7729 12.463 29.0605 10.7298 26.9561 10.7298C24.8517 10.7298 23.1392 12.463 23.1392 14.5803C23.1392 15.8509 23.759 16.9815 24.7069 17.6851C24.0805 17.9157 23.5004 18.2377 22.9807 18.6379C22.0425 17.428 20.7644 16.5024 19.2854 16.0076C20.5097 15.1948 21.321 13.8004 21.321 12.2211C21.321 9.72468 19.2962 7.6825 16.8104 7.6825H16.8103ZM16.8103 8.83404C18.6695 8.83404 20.1682 10.3429 20.1682 12.2211C20.1682 14.0846 18.6928 15.5788 16.8542 15.6028C16.8396 15.6028 16.8252 15.6007 16.8103 15.6007C16.7954 15.6007 16.7812 15.6028 16.7663 15.6028C14.9277 15.5791 13.4533 14.0847 13.4533 12.2211C13.4533 10.3426 14.9508 8.83404 16.81 8.83404H16.8103ZM6.66546 11.8815C8.14062 11.8815 9.33073 13.0788 9.33073 14.5805C9.33073 16.0721 8.15602 17.2642 6.69474 17.2804C6.68497 17.2804 6.67546 17.2794 6.66544 17.2794C6.65567 17.2794 6.64616 17.2804 6.63614 17.2804C5.17485 17.2642 4.00014 16.0718 4.00014 14.5805C4.00014 13.0788 5.19025 11.8815 6.66542 11.8815H6.66546ZM26.9557 11.8815C28.4309 11.8815 29.621 13.0788 29.621 14.5805C29.621 16.0721 28.4463 17.2642 26.985 17.2804C26.9752 17.2804 26.9657 17.2794 26.9557 17.2794C26.9459 17.2794 26.9364 17.2804 26.9264 17.2804C25.4651 17.2642 24.2904 16.0718 24.2904 14.5805C24.2904 13.0788 25.4805 11.8815 26.9557 11.8815H26.9557ZM16.7662 16.7543C16.7808 16.7545 16.7952 16.7563 16.8101 16.7563C16.8248 16.7563 16.8392 16.7543 16.8541 16.7543C20.5413 16.7779 23.4923 19.7542 23.4923 23.48L23.492 25.3286H10.1288V23.48C10.1288 19.7539 13.0789 16.7779 16.7657 16.7543H16.7662ZM6.62137 18.4333C6.63602 18.4335 6.65042 18.4353 6.66532 18.4353C6.68023 18.4353 6.69437 18.4333 6.70928 18.4333C7.95644 18.4433 9.09463 18.8733 10.0009 19.5928C9.35241 20.7403 8.97737 22.0647 8.97737 23.4803V25.3245H1.26266V23.8962C1.26266 20.8682 3.6434 18.4569 6.62123 18.433L6.62137 18.4333ZM26.9116 18.4333C26.9265 18.4335 26.9407 18.4353 26.9556 18.4353C26.9705 18.4353 26.9846 18.4333 26.9995 18.4333C29.9774 18.4569 32.3581 20.8685 32.3581 23.8964V25.3245H24.6395L24.6392 23.4803C24.6392 22.0655 24.2652 20.742 23.618 19.5948C24.5245 18.8744 25.6635 18.4433 26.9117 18.4333H26.9116Z" fill="#103E13"/>
</svg>
