<svg width="34" height="35" viewBox="0 0 34 35" fill="none" xmlns="http://www.w3.org/2000/svg">
<rect x="0.446045" y="0.668488" width="33.4113" height="33.4113" rx="5.56856" fill="#E8F5E9"/>
<g clip-path="url(#clip0_211_2511)">
<path fill-rule="evenodd" clip-rule="evenodd" d="M7.65259 0.803833C11.4968 0.803833 14.6133 3.92024 14.6133 7.76453V0.803833H21.574C25.4182 0.803833 28.5347 3.92024 28.5347 7.76453C28.5347 11.6088 25.4182 14.7252 21.574 14.7252C25.4182 14.7252 28.5347 17.8417 28.5347 21.6859C28.5347 23.5947 27.7663 25.3241 26.522 26.5817L26.496 26.6079L26.4728 26.6309C25.215 27.877 23.4844 28.6466 21.574 28.6466C19.6766 28.6466 17.9564 27.8874 16.7008 26.6562C16.6845 26.6402 16.6682 26.624 16.652 26.6079C16.6368 26.5926 16.6216 26.5773 16.6065 26.562C15.3737 25.3061 14.6133 23.5848 14.6133 21.6859C14.6133 25.5302 11.4968 28.6466 7.65259 28.6466C3.8083 28.6466 0.691895 25.5302 0.691895 21.6859V14.7252H7.65259C3.8083 14.7252 0.691895 11.6088 0.691895 7.76453C0.691895 3.92024 3.8083 0.803833 7.65259 0.803833ZM13.2211 7.76453C13.2211 10.84 10.728 13.3331 7.65259 13.3331V2.19597C10.728 2.19597 13.2211 4.6891 13.2211 7.76453ZM27.1425 21.6859C27.1425 18.6105 24.6494 16.1174 21.574 16.1174C18.4985 16.1174 16.0054 18.6105 16.0054 21.6859H27.1425ZM2.08403 16.1174V21.6859C2.08403 24.7614 4.57716 27.2545 7.65259 27.2545C10.728 27.2545 13.2211 24.7614 13.2211 21.6859V16.1174H2.08403ZM16.0054 13.3331V2.19597H21.574C24.6494 2.19597 27.1425 4.6891 27.1425 7.76453C27.1425 10.84 24.6494 13.3331 21.574 13.3331H16.0054Z" fill="#5417D7"/>
</g>
<defs>
<clipPath id="clip0_211_2511">
<rect width="27.8428" height="27.8428" fill="white" transform="translate(0.691895 0.803833)"/>
</clipPath>
</defs>
</svg>
