<svg width="29" height="21" viewBox="0 0 29 21" fill="none" xmlns="http://www.w3.org/2000/svg">
<g clip-path="url(#clip0_211_2515)">
<path fill-rule="evenodd" clip-rule="evenodd" d="M7.42516 3.38655L0.474365 10.2675C1.86465 11.6438 3.45284 12.8037 5.18442 13.7112C5.66303 14.968 6.41325 16.1467 7.43506 17.1582C11.2794 20.9638 17.5122 20.9638 21.3564 17.1582C22.3783 16.1467 23.1285 14.968 23.6071 13.7111C25.3387 12.8037 26.9269 11.6438 28.3171 10.2675L21.372 3.39215C21.3668 3.387 21.3617 3.38186 21.3564 3.37672C17.5122 -0.428919 11.2794 -0.428919 7.43506 3.37672C7.43177 3.38 7.42846 3.38327 7.42516 3.38655ZM20.6914 14.9526C18.6658 15.6294 16.5394 15.9759 14.3958 15.9759C12.2521 15.9759 10.1258 15.6294 8.10022 14.9526C8.31969 15.2409 8.562 15.5175 8.8272 15.7801C11.9026 18.8246 16.8889 18.8246 19.9643 15.7801C20.2295 15.5175 20.4719 15.2409 20.6914 14.9526ZM8.96996 4.61705C9.49222 4.95862 10.0475 5.2509 10.6286 5.4892C11.8229 5.97892 13.103 6.23098 14.3958 6.23098C15.6885 6.23098 16.9686 5.97892 18.1629 5.4892C18.744 5.2509 19.2993 4.95861 19.8216 4.61703C16.7845 1.75629 12.007 1.7563 8.96996 4.61705Z" fill="#3B4158"/>
</g>
<defs>
<clipPath id="clip0_211_2515">
<rect width="27.8428" height="19.4899" fill="white" transform="translate(0.474365 0.522491)"/>
</clipPath>
</defs>
</svg>
