<svg width="39" height="35" viewBox="0 0 39 35" fill="none" xmlns="http://www.w3.org/2000/svg">
<rect x="0.346436" y="0.668457" width="33.4113" height="33.4113" rx="5.56856" fill="white"/>
<g clip-path="url(#clip0_211_2517)">
<path d="M38.6273 14.2532C38.6313 14.2242 38.6313 14.1949 38.6273 14.1658C38.6311 14.1422 38.6311 14.1181 38.6273 14.0944L38.3437 12.053C38.3028 11.8088 38.1933 11.5806 38.0277 11.3938L37.9791 11.3382L37.89 11.2508L32.9802 7.10462L33.1179 7.23966C33.0052 7.10749 32.8638 7.00177 32.704 6.93029C32.5441 6.8588 32.3699 6.82338 32.1943 6.82662H30.7035C30.4611 6.82191 30.2242 6.89747 30.0311 7.04108C29.8282 6.89834 29.584 6.82317 29.3343 6.82662H27.8435C27.648 6.82351 27.4552 6.87109 27.2844 6.96454C27.1137 7.05799 26.9712 7.194 26.8713 7.35879C26.7173 7.59417 26.6595 7.87777 26.7093 8.15309L26.8956 9.43983C26.7722 9.37122 26.6324 9.33562 26.4905 9.33658H19.2717C19.0127 9.33818 18.7596 9.4126 18.5425 9.55103C18.3325 9.67988 18.1639 9.86439 18.0564 10.0832L17.4973 9.61458C17.2773 9.41499 16.9869 9.30681 16.6871 9.31275H5.3606C5.10068 9.31739 4.84653 9.38858 4.62334 9.51927C4.31799 9.69448 4.09422 9.97937 3.99947 10.3136L0.402202 22.1088C0.334989 22.3031 0.328377 22.5127 0.383213 22.7108C0.43805 22.9088 0.551852 23.0864 0.71008 23.2208C0.75131 23.255 0.794601 23.2869 0.839715 23.3161C0.839715 23.3161 0.766786 23.2684 0.726275 23.2287L5.63608 27.3828C5.84378 27.5703 6.11533 27.6751 6.39762 27.6767H17.8133C18.074 27.6701 18.3283 27.5961 18.5506 27.4622C18.6763 27.3949 18.7888 27.3062 18.8828 27.2001L18.9233 27.1445L18.9881 27.0651L19.0367 26.9777L19.5715 27.4305C19.7762 27.6105 20.0418 27.7095 20.3168 27.7085H31.7568C32.0172 27.7 32.271 27.6262 32.4941 27.494C32.6169 27.4226 32.7288 27.3343 32.8263 27.2319L32.8667 27.1763L32.9316 27.0969C32.966 27.0466 32.9959 26.9935 33.0207 26.938C33.0471 26.8899 33.0688 26.8393 33.0855 26.7871L36.3668 16.0166V15.9212C36.3708 15.8843 36.3708 15.847 36.3668 15.81V15.7386C36.3707 15.7149 36.3707 15.6908 36.3668 15.6671C36.3704 15.6168 36.3704 15.5664 36.3668 15.5161H37.4201C37.5117 15.5244 37.6039 15.5244 37.6955 15.5161H37.7684C37.8277 15.4988 37.8848 15.4748 37.9386 15.4447H38.0196L38.1654 15.3335L38.2302 15.2858L38.3437 15.1428V15.0952L38.4247 14.9601C38.4202 14.9339 38.4202 14.907 38.4247 14.8807C38.4204 14.8678 38.4204 14.8539 38.4247 14.841C38.4419 14.7944 38.4555 14.7466 38.4652 14.698C38.4614 14.6824 38.4614 14.666 38.4652 14.6504C38.4613 14.6267 38.4613 14.6025 38.4652 14.5789C38.4652 14.5789 38.6273 14.2691 38.6273 14.2532Z" fill="black"/>
<path d="M17.0193 10.2183C17.0623 10.2564 17.0924 10.3066 17.1054 10.362C17.1185 10.4174 17.1139 10.4753 17.0923 10.5281L13.5031 22.3153C13.4579 22.444 13.3655 22.5516 13.2439 22.6172C13.1449 22.6821 13.0304 22.7204 12.9116 22.7284H1.50411C1.40668 22.7238 1.31439 22.6842 1.24484 22.6172C1.20347 22.5796 1.17443 22.5309 1.16144 22.4772C1.14845 22.4234 1.15211 22.3671 1.17193 22.3153L4.7692 10.5281C4.81064 10.3978 4.9002 10.2873 5.02035 10.2183C5.12094 10.1581 5.23492 10.1226 5.35253 10.115H16.7601C16.8567 10.116 16.9494 10.1529 17.0193 10.2183ZM11.0644 19.9404L13.2114 12.903H7.1998L5.06085 19.9404H11.0644ZM27.9084 10.3374C27.9473 10.3818 27.9959 10.417 28.0507 10.4403C28.1054 10.4637 28.1647 10.4747 28.2244 10.4725H29.707C29.7635 10.473 29.8191 10.4594 29.8688 10.433C29.9184 10.4066 29.9603 10.3683 29.9906 10.3216C30.0169 10.2851 30.0355 10.2438 30.0452 10.2001C30.055 10.1565 30.0557 10.1113 30.0473 10.0674L29.7556 7.97046C29.7279 7.87341 29.678 7.7838 29.6098 7.70835C29.5708 7.664 29.5222 7.62884 29.4675 7.60546C29.4128 7.58208 29.3534 7.5711 29.2938 7.57332H27.8112C27.7547 7.57278 27.699 7.58635 27.6494 7.61276C27.5998 7.63916 27.5579 7.67753 27.5276 7.72424C27.4709 7.83543 27.4466 7.90692 27.4709 7.97046L27.7707 10.0674C27.786 10.1695 27.8343 10.2641 27.9084 10.3374ZM32.6156 7.95458C32.5878 7.85752 32.5379 7.76791 32.4698 7.69246C32.4325 7.64828 32.3853 7.61312 32.3319 7.5897C32.2785 7.56629 32.2203 7.55524 32.1619 7.55743H30.6711C30.6156 7.55588 30.5607 7.56909 30.5122 7.59566C30.4637 7.62222 30.4235 7.66117 30.3957 7.70835C30.3418 7.77881 30.3184 7.86733 30.3309 7.95458L30.6306 10.0515C30.6494 10.1525 30.6972 10.2462 30.7684 10.3216C30.808 10.365 30.8568 10.3996 30.9113 10.4229C30.9659 10.4462 31.0248 10.4577 31.0843 10.4566H32.5751C32.6305 10.4573 32.6851 10.4437 32.7334 10.4173C32.7818 10.3908 32.8222 10.3523 32.8506 10.3057C32.8788 10.2701 32.8985 10.2289 32.9083 10.1849C32.9181 10.1409 32.9178 10.0953 32.9073 10.0515L32.6156 7.95458ZM26.604 11.1317L26.4581 10.0992H19.2717C19.1589 10.1053 19.0497 10.1409 18.9557 10.2024C18.896 10.2343 18.8441 10.2785 18.8035 10.332C18.763 10.3855 18.7348 10.447 18.7208 10.5122L18.1212 12.482C18.0973 12.5312 18.0891 12.5865 18.0978 12.6403C18.1065 12.6942 18.1316 12.7442 18.1698 12.7839C18.2381 12.8468 18.3273 12.8835 18.421 12.8871H27.1549L25.0079 19.9245H16.2983C16.186 19.927 16.0766 19.96 15.9823 20.0198C15.8677 20.0912 15.784 20.2015 15.7474 20.3296L15.1397 22.2995C15.1199 22.35 15.1147 22.4049 15.1247 22.4582C15.1347 22.5115 15.1595 22.561 15.1964 22.6013C15.2626 22.6684 15.3524 22.7082 15.4476 22.7125H26.8875C27.0058 22.7025 27.1199 22.6643 27.2197 22.6013C27.3393 22.5354 27.4291 22.4276 27.4709 22.2995L30.7602 11.5289H27.0577C26.9989 11.53 26.9406 11.5193 26.8862 11.4975C26.8319 11.4756 26.7827 11.443 26.7417 11.4018C26.6747 11.3298 26.6273 11.2423 26.604 11.1476V11.1317Z" fill="white"/>
</g>
<defs>
<clipPath id="clip0_211_2517">
<rect width="38.2838" height="20.8821" fill="white" transform="translate(0.346436 6.82642)"/>
</clipPath>
</defs>
</svg>
