<svg width="34" height="35" viewBox="0 0 34 35" fill="none" xmlns="http://www.w3.org/2000/svg">
<rect x="0.296631" y="0.668457" width="33.4113" height="33.4113" rx="5.56856" fill="white"/>
<g clip-path="url(#clip0_211_2521)">
<path d="M30.9211 10.0038C30.9211 10.0273 30.9211 10.0567 30.915 10.0744C30.8844 10.3038 30.8844 10.5333 30.9027 10.7687C30.915 10.8275 30.9273 10.8864 30.9763 10.9335C31.056 11.0217 31.1786 11.0041 31.2277 10.8981C31.2522 10.8452 31.2522 10.7922 31.2399 10.7393C31.1786 10.5157 31.1664 10.2803 31.1602 10.0508C31.1602 10.0391 31.1602 10.0214 31.1602 10.0038C31.2277 9.99787 31.289 9.99198 31.3441 9.99198C31.3871 9.9861 31.4239 9.98021 31.4545 9.96256C31.5465 9.91549 31.5465 9.81546 31.4484 9.76838C31.4116 9.75073 31.3626 9.74484 31.3197 9.74484C31.1664 9.75073 31.0131 9.75073 30.8598 9.75073C30.8047 9.75073 30.7495 9.75661 30.6943 9.7625C30.6636 9.76838 30.6268 9.76838 30.6024 9.78604C30.5594 9.80368 30.5349 9.83311 30.5349 9.87429C30.541 9.91549 30.5594 9.93902 30.6024 9.95668C30.6268 9.97433 30.6575 9.98021 30.6882 9.98021C30.7617 9.9861 30.8415 9.99787 30.9211 10.0038ZM32.6071 10.2744C32.6071 10.2803 32.6132 10.2862 32.6132 10.2862C32.6378 10.4451 32.6623 10.5981 32.6807 10.751C32.6868 10.804 32.693 10.8511 32.7297 10.8923C32.8094 10.9923 32.9321 10.9805 32.9872 10.8746C33.0117 10.8217 33.0179 10.7687 33.0056 10.7099C32.9688 10.5333 32.9504 10.3568 32.9136 10.1862C32.8891 10.0802 32.8585 9.98021 32.8278 9.88607C32.8094 9.82722 32.7665 9.78603 32.693 9.78015C32.6194 9.76838 32.5642 9.80368 32.5335 9.85665C32.4968 9.90372 32.4661 9.95079 32.4416 10.0038C32.3987 10.0979 32.3619 10.192 32.3128 10.2803C32.3067 10.3038 32.3006 10.3215 32.2883 10.3391C32.2822 10.3274 32.2761 10.3215 32.2761 10.3215C32.1963 10.1744 32.1228 10.0273 32.0431 9.88607C32.0308 9.87429 32.0247 9.86253 32.0185 9.85076C31.9818 9.7978 31.9389 9.76838 31.8714 9.76838C31.8101 9.77426 31.761 9.80957 31.7304 9.86253C31.7181 9.88607 31.7181 9.90372 31.712 9.92726C31.6875 10.1155 31.6568 10.3038 31.6323 10.4921C31.62 10.5981 31.6139 10.704 31.6139 10.8099C31.6078 10.8334 31.6139 10.8628 31.6262 10.8864C31.6384 10.9334 31.6752 10.9629 31.7243 10.9688C31.7856 10.9746 31.8285 10.957 31.8469 10.9099C31.8653 10.8746 31.8714 10.8452 31.8775 10.8158C31.9021 10.7099 31.9204 10.6098 31.9389 10.5098C31.9511 10.4509 31.9572 10.4039 31.9756 10.3391C31.9879 10.3627 32.0001 10.3803 32.0124 10.398C32.0676 10.4686 32.1228 10.5392 32.1902 10.5981C32.2577 10.6451 32.3128 10.6392 32.368 10.5863C32.3803 10.5745 32.3864 10.5686 32.3987 10.5569C32.4538 10.4745 32.5213 10.3921 32.5764 10.3097C32.5887 10.298 32.5949 10.2862 32.6071 10.2744Z" fill="#3A3B7B"/>
<path d="M18.4809 10.1194C18.4383 10.2312 18.4302 10.3117 18.4499 10.3787C18.4716 10.4698 18.528 10.4996 18.6046 10.4764C19.3247 10.3055 20.9037 10.7906 21.4884 10.9258C21.6262 10.9542 21.7384 10.7834 21.6443 10.6302C21.507 10.4819 19.9286 9.84689 19.3264 9.81227C19.0903 9.79946 18.6683 9.74136 18.4809 10.1194Z" fill="#3A3B7B"/>
<path d="M24.6522 8.06369C24.729 8.10621 24.7719 8.14676 24.7931 8.19207C24.8246 8.25151 24.808 8.29264 24.755 8.31362C24.279 8.53659 23.6456 9.49654 23.3899 9.82761C23.3279 9.90377 23.1849 9.85951 23.1633 9.73427C23.1678 9.59265 23.7293 8.5509 24.0426 8.26717C24.1658 8.15639 24.3692 7.93902 24.6522 8.06369Z" fill="#3A3B7B"/>
<path d="M20.8617 7.59118C20.9539 7.52449 21.0497 7.50112 21.0986 7.54446C21.8168 8.13396 22.1977 9.06748 22.4335 9.92211C22.4424 9.94202 22.443 9.97059 22.4359 10.0004C22.4329 10.0259 22.4135 10.0528 22.3827 10.0736C22.3498 10.0966 22.3215 10.1036 22.3082 10.0838C21.9934 9.67288 20.1956 8.0741 20.8617 7.59118Z" fill="#3A3B7B"/>
<path d="M5.65305 17.8116C5.82518 17.6886 6.01232 17.5862 6.21034 17.5068C6.41752 17.4499 6.63835 17.4593 6.83945 17.5336C7.04051 17.608 7.21096 17.7431 7.3249 17.9186C7.42683 18.0937 7.4667 18.2958 7.43856 18.4946C7.41043 18.6932 7.31578 18.8778 7.16885 19.0204C7.05495 19.1361 6.92563 19.2368 6.78435 19.32C6.15463 19.7104 5.5193 20.0795 4.884 20.4699C4.754 20.5677 4.6161 20.6553 4.4716 20.732C4.25182 20.8372 4.00064 20.8654 3.7615 20.8117C3.52236 20.758 3.3103 20.6257 3.16198 20.4379C3.05111 20.3048 2.95754 20.1593 2.88334 20.0046C2.28147 18.7905 1.65731 17.5816 1.07774 16.3461C0.810237 15.8112 0.592897 15.1961 0.381129 14.6024C0.289508 14.4299 0.271617 14.2299 0.331264 14.045C0.390912 13.86 0.523392 13.7046 0.700525 13.612C0.877659 13.5193 1.08547 13.4966 1.27976 13.5487C1.47405 13.6009 1.63949 13.7237 1.7409 13.891C2.05261 14.2886 2.32853 14.7109 2.56569 15.1534C3.16755 16.2231 3.74156 17.2928 4.32114 18.3304C4.35488 18.3878 4.3921 18.4431 4.43259 18.4962C4.86882 18.3202 5.27912 18.0901 5.65305 17.8116Z" fill="#3A3B7B"/>
<path d="M11.8761 17.4385C10.4996 18.9842 8.19242 18.5937 7.03327 16.604C6.20847 15.192 6.06359 12.8599 7.85807 11.3891C8.24126 11.0811 8.69946 10.8713 9.18995 10.7793C9.79135 10.6966 10.4046 10.7984 10.9421 11.0702C11.4796 11.3421 11.9137 11.7701 12.1826 12.293C13.1634 14.0046 13.0241 16.1868 11.8761 17.4385ZM11.3188 13.8334C11.1725 13.4128 10.8792 13.0537 10.4884 12.8171C10.2673 12.6659 9.99863 12.5923 9.72765 12.6089C9.45663 12.6255 9.19986 12.7311 9.00049 12.9081C8.20359 13.5874 8.03637 15.1973 8.61594 16.1548C8.68983 16.3109 8.79831 16.4496 8.93389 16.5613C9.06947 16.6729 9.22884 16.7548 9.40083 16.8012C9.57282 16.8476 9.75326 16.8573 9.9296 16.8297C10.1059 16.8021 10.2738 16.7379 10.4216 16.6415C10.8536 16.32 11.1705 15.8774 11.3283 15.3751C11.4861 14.8728 11.4769 14.3358 11.3021 13.8388L11.3188 13.8334Z" fill="#3A3B7B"/>
<path d="M17.4934 14.5074C17.3525 14.5365 17.2069 14.5382 17.0653 14.5125C16.9236 14.4867 16.7888 14.4341 16.6687 14.3576C16.5635 14.2999 16.4731 14.2206 16.4037 14.1253C16.3344 14.03 16.2879 13.9212 16.2677 13.8066C16.2474 13.692 16.2539 13.5746 16.2866 13.4627C16.3193 13.3508 16.3775 13.2473 16.4569 13.1595C16.5952 12.9831 16.7916 12.8569 17.0142 12.8011C17.5952 12.6393 18.1934 12.5406 18.7975 12.507C18.9302 12.4922 19.0647 12.5029 19.193 12.5387C19.3213 12.5745 19.4409 12.6344 19.5447 12.7152C19.6485 12.7959 19.7345 12.8957 19.7976 13.0087C19.8606 13.1218 19.8996 13.2458 19.912 13.3735C20.0862 14.0006 20.1053 14.6582 19.9678 15.2937C19.4662 17.3475 17.7386 18.0535 15.7993 17.3957C15.2549 17.2198 14.7776 16.892 14.4284 16.4543C13.9626 15.9272 13.6324 15.3025 13.4642 14.6304C13.3281 14.0319 13.343 13.4109 13.5078 12.8192C13.6726 12.2274 13.9825 11.682 14.4116 11.2286C14.8189 10.7358 15.3475 10.348 15.9498 10.1001C16.3303 9.89872 16.7757 9.84148 17.1981 9.9396C17.2939 9.96505 17.3809 10.0146 17.45 10.0832C17.5191 10.1518 17.5679 10.2369 17.5912 10.3297C17.6145 10.4225 17.6115 10.5195 17.5826 10.6108C17.5536 10.7021 17.4998 10.7843 17.4266 10.8489C17.2874 10.9698 17.1362 11.0773 16.9751 11.1698C16.4797 11.4726 16.0486 11.8628 15.7045 12.3198C15.479 12.6154 15.3237 12.955 15.2496 13.3144C15.1754 13.6739 15.1843 14.0446 15.2755 14.4004C15.4018 14.8856 15.6823 15.3211 16.0779 15.6466C17.3039 16.7164 18.8978 15.6841 18.6191 14.2239C18.2123 14.3202 17.8557 14.4218 17.4934 14.5074Z" fill="#3A3B7B"/>
<path d="M24.9834 17.524C23.1722 18.5938 21.1103 17.524 20.6589 15.2776C20.3301 13.673 20.9542 11.4265 23.1388 10.5707C23.6036 10.3926 24.1077 10.33 24.6045 10.3889C25.2012 10.4937 25.7487 10.7757 26.1696 11.1951C26.5905 11.6144 26.8637 12.15 26.9506 12.7263C27.3184 14.6357 26.4825 16.6736 24.9834 17.524ZM25.6132 13.9244C25.6126 13.48 25.4488 13.0501 25.1506 12.7102C24.9912 12.5 24.7607 12.3494 24.4986 12.284C24.2363 12.2187 23.9587 12.2426 23.7128 12.3519C22.732 12.7583 22.0409 14.2346 22.2917 15.3204C22.3109 15.4908 22.3686 15.6551 22.4608 15.8019C22.553 15.9487 22.6775 16.0743 22.8256 16.1701C22.9736 16.2658 23.1418 16.3294 23.3181 16.3564C23.4945 16.3832 23.6748 16.3729 23.8465 16.3259C24.365 16.1521 24.8139 15.8273 25.1306 15.3967C25.4473 14.9661 25.616 14.4514 25.6132 13.9244Z" fill="#3A3B7B"/>
<path d="M28.7823 17.9733C28.7549 18.1691 28.6477 18.3464 28.4841 18.4663C28.3206 18.5861 28.1141 18.6388 27.9101 18.6125C27.7062 18.5863 27.5214 18.4833 27.3965 18.3263C27.2716 18.1694 27.2168 17.9712 27.2442 17.7754C27.2715 17.5797 27.3788 17.4024 27.5423 17.2825C27.7059 17.1626 27.9124 17.11 28.1163 17.1363C28.3203 17.1625 28.505 17.2654 28.63 17.4224C28.7548 17.5794 28.8097 17.7776 28.7823 17.9733ZM28.2974 10.7579C28.4034 10.6026 28.5589 10.4843 28.7407 10.4206C28.9225 10.357 29.1208 10.3515 29.3061 10.4049C29.4945 10.4502 29.661 10.5561 29.7777 10.7051C29.8943 10.8541 29.9541 11.037 29.947 11.2233C29.9224 11.522 29.8759 11.8187 29.8077 12.1111C29.6238 13.1007 29.4455 14.0902 29.2504 15.069C29.1613 15.4595 29.0442 15.8339 28.916 16.2296C28.8714 16.3534 28.7969 16.4652 28.6987 16.5559C28.6376 16.6242 28.5596 16.6765 28.4719 16.7081C28.3841 16.7398 28.2894 16.7497 28.1967 16.7369C28.1039 16.7241 28.0159 16.689 27.941 16.635C27.8661 16.5809 27.8066 16.5095 27.7681 16.4276C27.7018 16.2805 27.6658 16.1224 27.6621 15.9622C27.6621 15.299 27.6621 14.6304 27.7067 13.9618C27.7825 13.0076 27.9315 12.0601 28.1526 11.127C28.1786 11.002 28.2276 10.8824 28.2974 10.774V10.7579Z" fill="#3A3B7B"/>
<path fill-rule="evenodd" clip-rule="evenodd" d="M3.29842 22.2714C3.23262 22.4124 3.21458 22.5696 3.24673 22.7209C3.26812 22.9202 3.3151 23.1164 3.38661 23.3047C3.47589 23.5354 3.57578 23.7635 3.69896 24.0446C3.72729 24.1093 3.75689 24.1769 3.78787 24.2479C3.95398 24.6288 4.1624 25.1156 4.44041 25.82C4.5191 26.0201 4.58898 26.2219 4.65934 26.425C4.68777 26.5071 4.71629 26.5895 4.74549 26.672C4.85017 26.9654 5.03027 27.229 5.269 27.438C5.37037 27.5528 5.50483 27.6365 5.6556 27.6783C5.80931 27.721 5.97279 27.7183 6.12487 27.6706C6.27695 27.6228 6.41052 27.5322 6.50825 27.4106C6.60406 27.2914 6.66103 27.1477 6.67211 26.9976C6.73427 26.7052 6.71305 26.402 6.6106 26.12C6.44801 25.652 6.26279 25.1832 6.04921 24.7247L6.04823 24.7227C5.69686 24.0053 5.33971 23.2929 4.96565 22.5803L4.96285 22.5753C4.85335 22.3896 4.71104 22.2236 4.54232 22.0848C4.43279 21.9609 4.28171 21.8773 4.11486 21.8485C3.94446 21.8191 3.76871 21.8487 3.619 21.9322C3.47737 22.0098 3.3651 22.1286 3.29842 22.2714Z" fill="#3A3B7B"/>
<path fill-rule="evenodd" clip-rule="evenodd" d="M8.66494 20.5051C8.11401 20.3681 7.53865 20.3482 6.97893 20.4466C6.54541 20.4876 6.11904 20.5836 5.82296 20.7737C5.67238 20.8704 5.55063 20.9947 5.48291 21.1526C5.41482 21.3114 5.40612 21.493 5.46193 21.6953C5.56381 22.0659 5.69612 22.4262 5.82796 22.7854L5.84932 22.8435L5.84984 22.8448C6.24681 23.8883 6.64758 24.9282 7.05198 25.9645C7.09914 26.1278 7.16583 26.2853 7.2507 26.4339L7.25229 26.4367C7.36441 26.6213 7.50822 26.7864 7.67764 26.9251C7.76237 27.0013 7.86715 27.0541 7.98077 27.0777C8.09551 27.1015 8.21482 27.0946 8.32573 27.0577C8.43668 27.0208 8.53492 26.9555 8.60979 26.8687C8.68345 26.7833 8.73168 26.6804 8.74939 26.571C8.82249 26.2736 8.79907 25.9619 8.68223 25.6776C8.64578 25.582 8.61718 25.4842 8.58703 25.3813C8.57698 25.347 8.56679 25.3121 8.55604 25.2765C9.48175 24.9292 10.4667 24.4622 10.8131 23.3758C10.9487 23.0004 10.96 22.5939 10.8454 22.212C10.7307 21.8297 10.4954 21.4909 10.1719 21.2421C9.7316 20.8939 9.21727 20.6423 8.66494 20.5051ZM7.13784 21.8376C7.15606 21.8325 7.17443 21.8279 7.19285 21.8235C7.79551 21.7326 8.4121 21.8537 8.92909 22.1646C9.15693 22.3167 9.25026 22.4856 9.26629 22.6482C9.28284 22.8156 9.21942 22.997 9.09201 23.1714C8.85128 23.5008 8.41196 23.7645 8.01512 23.8136C7.72582 23.1742 7.43204 22.5089 7.13784 21.8376Z" fill="#3A3B7B"/>
<path d="M12.3379 19.3347C12.994 19.0439 13.8067 18.9936 14.4426 19.1981C14.6028 19.2429 14.7417 19.3397 14.8357 19.4721C14.9291 19.6036 14.9722 19.7621 14.9578 19.9206C14.9568 20.0234 14.9305 20.1246 14.881 20.2159C14.8306 20.3089 14.7577 20.3888 14.6683 20.449C14.579 20.5091 14.4758 20.5478 14.3676 20.5616C14.2594 20.5755 14.1493 20.5641 14.0466 20.5285L14.0388 20.5257L14.0315 20.522C13.979 20.4957 13.9232 20.4758 13.8654 20.4629L13.8618 20.4621C13.4144 20.348 12.9925 20.537 12.8383 20.7692C12.7648 20.8799 12.7557 20.9916 12.8169 21.0933C12.8825 21.2022 13.0433 21.3243 13.3687 21.4114C13.4582 21.435 13.55 21.4577 13.643 21.4809C13.9004 21.5448 14.1678 21.6113 14.4264 21.7033L14.4274 21.7037C15.6203 22.1393 16.0646 23.0416 15.9125 23.8903C15.762 24.7295 15.0318 25.4933 13.9336 25.6734C13.534 25.7584 13.1182 25.7419 12.7272 25.6254C12.3353 25.5085 11.982 25.2953 11.7025 25.0069L11.6952 24.9993C11.607 24.8907 11.5476 24.763 11.5213 24.6275C11.4971 24.5052 11.5099 24.3789 11.558 24.2633C11.6058 24.1484 11.6868 24.049 11.7913 23.9766C11.9016 23.8945 12.0346 23.8452 12.1738 23.8349C12.3126 23.8247 12.4514 23.8536 12.5733 23.9181C12.695 23.9746 12.8082 24.0466 12.9098 24.1322L12.9117 24.1337C13.0914 24.2915 13.3089 24.3326 13.5174 24.2945C13.729 24.2559 13.928 24.1357 14.0559 23.9763C14.1831 23.8179 14.2341 23.6297 14.1735 23.447C14.1126 23.263 13.9293 23.0568 13.5267 22.8845C13.4215 22.8416 13.3123 22.807 13.1988 22.7733C13.1682 22.7642 13.1371 22.7552 13.1056 22.746C13.0216 22.7216 12.9353 22.6964 12.8506 22.6686C12.7922 22.6495 12.7344 22.6315 12.6771 22.6135C12.5205 22.5646 12.3678 22.5169 12.2208 22.4529C11.901 22.3484 11.6247 22.1477 11.4331 21.8806C11.2406 21.6124 11.1438 21.2916 11.1569 20.9663C11.158 20.1734 11.6783 19.6271 12.3379 19.3347Z" fill="#3A3B7B"/>
<path d="M20.6558 19.2502C20.5286 19.1906 20.3879 19.1622 20.2465 19.1678C20.105 19.1734 19.9672 19.2127 19.8456 19.2822C19.7247 19.3512 19.6234 19.4478 19.5509 19.5634C19.4844 19.6608 19.4384 19.7698 19.4154 19.8841C19.3925 19.9984 19.393 20.1159 19.417 20.2299C19.4407 20.3764 19.467 20.5189 19.4929 20.6594C19.5359 20.892 19.5776 21.1193 19.6052 21.3511L19.6062 21.3569C19.669 21.7204 19.7019 22.088 19.7048 22.4564L19.7051 22.4617C19.7265 22.8595 19.5853 23.2496 19.3117 23.5492L19.3073 23.5545C19.2183 23.664 19.0992 23.7476 18.9635 23.7959C18.8278 23.8442 18.6807 23.8553 18.5388 23.828C18.3968 23.8006 18.2657 23.7359 18.1598 23.6411C18.054 23.5463 17.9777 23.4247 17.9396 23.2907C17.8583 23.0082 17.8112 22.7177 17.7993 22.4249L17.9382 20.3025C17.9402 20.2748 17.9426 20.2463 17.945 20.2176C17.9502 20.1532 17.9557 20.0875 17.9579 20.0263C17.9612 19.9362 17.9584 19.8435 17.9365 19.7558C17.9141 19.6661 17.8715 19.5808 17.796 19.5082C17.7212 19.4363 17.6203 19.3833 17.4933 19.3472C17.2635 19.2834 17.0693 19.2854 16.9075 19.3513C16.7455 19.4172 16.6346 19.5396 16.5561 19.681C16.4781 19.8212 16.4281 19.9872 16.3902 20.1535C16.3621 20.2768 16.3396 20.4063 16.3181 20.5296C16.3107 20.5721 16.3034 20.6138 16.2961 20.6543L16.2959 20.6555C16.1811 21.3316 16.147 22.018 16.1941 22.7015C16.2029 23.0708 16.2831 23.4354 16.4308 23.7766C16.5974 24.2168 16.8992 24.5982 17.2963 24.8705C17.6943 25.1434 18.1691 25.2937 18.6581 25.3016C19.1471 25.3096 19.627 25.1747 20.0343 24.915C20.441 24.6557 20.7562 24.284 20.9382 23.8491C21.1928 23.2952 21.3123 22.6927 21.2877 22.0877C21.2727 21.646 21.2477 21.2009 21.2227 20.758C21.2105 20.5408 21.1983 20.324 21.1874 20.1086C21.1818 19.8925 21.1076 19.6833 20.9746 19.5089C20.8923 19.3987 20.7828 19.3097 20.6558 19.2502Z" fill="#3A3B7B"/>
<path d="M25.1584 22.5782C25.1455 22.5939 25.1319 22.6102 25.1177 22.6271C25.0142 22.0542 24.9183 21.4815 24.8223 20.9079C24.7878 20.7021 24.7532 20.4954 24.7184 20.2893L24.7145 20.2663L24.7018 20.2464C24.6778 20.2091 24.6754 20.1724 24.6754 20.0942V20.0852L24.6739 20.0762C24.648 19.9148 24.5719 19.7645 24.4556 19.6452C24.3397 19.5261 24.1892 19.4433 24.0236 19.4073C23.8583 19.3682 23.6846 19.3768 23.5243 19.4321C23.3645 19.4873 23.2252 19.5865 23.1238 19.7172C23.0394 19.8176 22.9703 19.9289 22.9185 20.0478C22.801 20.304 22.6824 20.5608 22.5635 20.8183L22.5615 20.8228C22.2647 21.4656 21.9658 22.1128 21.6757 22.7651L21.6748 22.7672C21.4967 23.1902 21.3497 23.6358 21.2031 24.0801C21.1739 24.1688 21.1446 24.2574 21.1151 24.3458C21.0622 24.486 21.0391 24.6349 21.047 24.7838C21.0374 24.9171 21.0706 25.05 21.1423 25.1647C21.2154 25.2817 21.3249 25.3737 21.4554 25.4279C21.5936 25.486 21.7482 25.4984 21.8946 25.463C22.0407 25.4276 22.1704 25.3467 22.2634 25.2329C22.3821 25.0927 22.4842 24.9399 22.5675 24.7779C22.8133 24.2954 23.0482 23.807 23.282 23.3207C23.3725 23.1326 23.4604 22.9641 23.5604 22.7807C23.5673 22.8033 23.5743 22.8253 23.5815 22.8475C23.6864 23.2904 23.8633 23.7147 24.1058 24.1047C24.1517 24.1873 24.2157 24.2596 24.2932 24.3164C24.3717 24.3739 24.4624 24.4143 24.5588 24.4348C24.6552 24.4553 24.7551 24.4554 24.8516 24.4351C24.9479 24.4148 25.0388 24.3744 25.1174 24.3171L25.2729 24.2054L26.4797 23.2298L26.4084 23.6663C26.3104 24.2663 26.2132 24.8613 26.1099 25.4565C26.0423 25.7203 26.0424 25.9958 26.1102 26.2595C26.1395 26.4079 26.2143 26.5446 26.325 26.652C26.4366 26.7603 26.5795 26.8339 26.7352 26.8633C26.891 26.8926 27.0523 26.8764 27.1983 26.8166C27.3421 26.7577 27.4645 26.6593 27.55 26.5338C27.749 26.2968 27.8728 26.01 27.9069 25.7073C27.9581 25.2799 28.016 24.8467 28.0739 24.4136C28.1405 23.9144 28.2072 23.4154 28.2636 22.9259L28.2637 22.9244C28.318 22.3886 28.3442 21.8506 28.3424 21.3123C28.3542 21.1422 28.3101 20.9727 28.2161 20.8278C28.1217 20.6825 27.982 20.5695 27.8168 20.5049C27.645 20.4299 27.4527 20.4099 27.2681 20.4478C27.0848 20.4854 26.9188 20.5781 26.7943 20.7125C26.5717 20.9101 26.3629 21.1216 26.1692 21.3455L26.1679 21.347C25.9564 21.5999 25.7464 21.8578 25.5377 22.114C25.4108 22.2698 25.2843 22.4252 25.1584 22.5782Z" fill="#3A3B7B"/>
</g>
<defs>
<clipPath id="clip0_211_2521">
<rect width="32.7153" height="20.186" fill="white" transform="translate(0.296631 7.52249)"/>
</clipPath>
</defs>
</svg>
