<svg width="34" height="35" viewBox="0 0 34 35" fill="none" xmlns="http://www.w3.org/2000/svg">
<rect x="0.246826" y="0.668457" width="33.4113" height="33.4113" rx="5.56856" fill="white"/>
<g clip-path="url(#clip0_211_2537)">
<path d="M27.002 8.80587C27.002 9.13024 27.2681 9.39318 27.5965 9.39318H28.1911C28.5195 9.39318 28.7856 9.13024 28.7856 8.80587C28.7856 8.48151 28.5195 8.21857 28.1911 8.21857H27.5965C27.2681 8.21857 27.002 8.48151 27.002 8.80587Z" fill="#212326"/>
<path d="M9.75978 27.0124H12.6481L11.8072 26.1818C11.5842 25.9616 11.2818 25.8378 10.9664 25.8378H9.75978C5.16264 25.8378 1.43594 22.1566 1.43594 17.6155C1.43594 13.0744 5.16264 9.39319 9.75978 9.39318H19.2727C23.8699 9.39318 27.5966 13.0744 27.5966 17.6155C27.5966 22.1566 23.8699 25.8378 19.2727 25.8378H15.7141C15.241 25.8378 14.7874 25.6522 14.4528 25.3218L13.4678 24.3487C12.9103 23.798 12.1541 23.4886 11.3657 23.4886H9.75978C6.4761 23.4886 3.81418 20.8591 3.81418 17.6155C3.81418 14.3719 6.4761 11.7424 9.75978 11.7424H19.2727C22.5564 11.7424 25.2183 14.3719 25.2183 17.6155C25.2183 20.8591 22.5564 23.4886 19.2727 23.4886H16.9878C16.5147 23.4886 16.061 23.303 15.7265 22.9726L14.7414 21.9995C14.1839 21.4488 13.4277 21.1394 12.6393 21.1394H9.75978C7.7896 21.1394 6.19242 19.5617 6.19242 17.6155C6.19242 15.6694 7.7896 14.0917 9.75978 14.0917H19.2727C21.2429 14.0917 22.8401 15.6694 22.8401 17.6155C22.8401 19.5379 21.2816 21.1008 19.3446 21.1387L19.3443 21.1394H18.4742C18.0011 21.1394 17.5474 20.9537 17.2129 20.6233L16.2278 19.6502C15.7703 19.1983 15.1792 18.9089 14.5461 18.8196L14.5163 18.7901H9.75978C9.10305 18.7901 8.57066 18.2642 8.57066 17.6155C8.57066 16.9668 9.10305 16.4409 9.75978 16.4409H19.2727C19.9295 16.4409 20.4618 16.9668 20.4618 17.6155C20.4618 18.2642 19.9295 18.7901 19.2727 18.7901H16.8945L17.7353 19.6207C17.9583 19.841 18.2608 19.9647 18.5761 19.9647H19.2727C20.5862 19.9647 21.651 18.9129 21.651 17.6155C21.651 16.3181 20.5862 15.2663 19.2727 15.2663H9.75978C8.44632 15.2663 7.38154 16.3181 7.38154 17.6155C7.38154 18.9129 8.44632 19.9647 9.75978 19.9647H14.1257C14.5988 19.9647 15.0524 20.1504 15.387 20.4808L16.3721 21.4539C16.9296 22.0046 17.6857 22.314 18.4742 22.314H19.57V22.305C22.0585 22.1534 24.0292 20.1118 24.0292 17.6155C24.0292 15.0206 21.8996 12.917 19.2727 12.917H9.75978C7.13287 12.917 5.0033 15.0206 5.0033 17.6155C5.0033 20.2104 7.13287 22.314 9.75978 22.314H12.6393C13.1124 22.314 13.566 22.4996 13.9006 22.83L14.8857 23.8031C15.4432 24.3538 16.1993 24.6632 16.9878 24.6632H19.2727C23.2131 24.6632 26.4074 21.5079 26.4074 17.6155C26.4074 13.7232 23.2131 10.5678 19.2727 10.5678H9.75978C5.81937 10.5678 2.62506 13.7232 2.62506 17.6155C2.62506 21.5079 5.81937 24.6632 9.75978 24.6632H11.3657C11.8387 24.6632 12.2924 24.8488 12.6269 25.1792L13.612 26.1523C14.1696 26.703 14.9257 27.0124 15.7141 27.0124H19.2727C24.5266 27.0124 28.7857 22.8053 28.7857 17.6155C28.7857 12.4257 24.5266 8.21857 19.2727 8.21857L9.75978 8.21857C4.50592 8.21857 0.246826 12.4257 0.246826 17.6155C0.246827 22.8053 4.50592 27.0124 9.75978 27.0124Z" fill="#212326"/>
</g>
<defs>
<clipPath id="clip0_211_2537">
<rect width="28.5388" height="18.7939" fill="white" transform="translate(0.246826 8.21857)"/>
</clipPath>
</defs>
</svg>
