<svg width="37" height="35" viewBox="0 0 37 35" fill="none" xmlns="http://www.w3.org/2000/svg">
<rect x="0.197021" y="0.668457" width="33.4113" height="33.4113" rx="5.56856" fill="white"/>
<g clip-path="url(#clip0_211_2541)">
<path d="M8.7887 10.3068C7.37517 10.3068 6.01955 10.8683 5.02004 11.8678L1.75805 15.1298C0.758541 16.1293 0.197021 17.4849 0.197021 18.8984C0.197021 21.842 2.58321 24.2282 5.52673 24.2282C6.94026 24.2282 8.29588 23.6666 9.29539 22.6671L11.5517 20.4108C11.5517 20.4107 11.5518 20.4108 11.5517 20.4108L18.1259 13.8366C18.6033 13.3592 19.2507 13.091 19.9258 13.091C21.056 13.091 22.0142 13.8277 22.3465 14.847L24.4213 12.7722C23.4747 11.2898 21.8151 10.3068 19.9258 10.3068C18.5123 10.3068 17.1567 10.8683 16.1572 11.8678L7.32663 20.6983C6.84926 21.1757 6.20183 21.4439 5.52673 21.4439C4.12092 21.4439 2.9813 20.3043 2.9813 18.8984C2.9813 18.2233 3.24948 17.5759 3.72684 17.0985L6.9888 13.8366C7.46617 13.3592 8.11361 13.091 8.7887 13.091C9.91898 13.091 10.8771 13.8277 11.2094 14.8471L13.2842 12.7723C12.3377 11.2898 10.678 10.3068 8.7887 10.3068Z" fill="#394149"/>
<path d="M18.4639 20.6983C17.9865 21.1757 17.3391 21.4439 16.664 21.4439C15.5339 21.4439 14.5758 20.7074 14.2435 19.6882L12.1687 21.763C13.1153 23.2453 14.7748 24.2282 16.664 24.2282C18.0775 24.2282 19.4331 23.6666 20.4326 22.6671L29.2631 13.8366C29.7405 13.3592 30.3879 13.091 31.063 13.091C32.4689 13.091 33.6085 14.2307 33.6085 15.6365C33.6085 16.3116 33.3403 16.959 32.8629 17.4364L29.601 20.6983C29.1236 21.1757 28.4762 21.4439 27.8011 21.4439C26.6709 21.4439 25.7127 20.7073 25.3805 19.688L23.3057 21.7628C24.2522 23.2452 25.9118 24.2282 27.8011 24.2282C29.2146 24.2282 30.5702 23.6666 31.5697 22.6671L34.8317 19.4051C35.8312 18.4056 36.3928 17.05 36.3928 15.6365C36.3928 12.693 34.0066 10.3068 31.063 10.3068C29.6495 10.3068 28.2939 10.8683 27.2944 11.8678L18.4639 20.6983Z" fill="#394149"/>
</g>
<defs>
<clipPath id="clip0_211_2541">
<rect width="36.1956" height="13.9214" fill="white" transform="translate(0.197021 10.3068)"/>
</clipPath>
</defs>
</svg>
